<svg version="1.1" xmlns="http://www.w3.org/2000/svg" viewBox="0 0 896.6054602282505 1007.8571319580078" width="896.6054602282505" height="1007.8571319580078">
  <!-- svg-source:excalidraw -->
  
  <defs>
    <style class="style-fonts">
      @font-face {
        font-family: "Virgil";
        src: url("https://excalidraw.com/Virgil.woff2");
      }
      @font-face {
        font-family: "Cascadia";
        src: url("https://excalidraw.com/Cascadia.woff2");
      }
    </style>
  </defs>
  <g stroke-linecap="round" transform="translate(272.0791015625 80.85713195800776) rotate(0 212.00000000000006 458.5)"><path d="M7.86 8.16 C7.86 8.16, 7.86 8.16, 7.86 8.16 M7.86 8.16 C7.86 8.16, 7.86 8.16, 7.86 8.16 M6.68 21.71 C10.64 17.72, 18.02 12.28, 21.12 5.11 M6.68 21.71 C12.06 17.12, 15.48 12.93, 21.12 5.11 M4.85 36.01 C10.41 23.13, 22.69 11.33, 34.37 2.05 M4.85 36.01 C14.57 25.25, 21.69 15.15, 34.37 2.05 M4.98 48.06 C18.91 38.71, 23.1 20.72, 45 2.02 M4.98 48.06 C20.48 29.45, 34.77 15.25, 45 2.02 M4.46 60.85 C19.45 38.74, 38.93 21.66, 55.63 1.98 M4.46 60.85 C20.89 47.01, 31.08 28.99, 55.63 1.98 M4.59 72.89 C22.89 54.39, 33.85 39.6, 66.26 1.95 M4.59 72.89 C19.32 54.96, 32.84 37.7, 66.26 1.95 M4.72 84.93 C22.91 64.01, 37.05 44.12, 76.89 1.91 M4.72 84.93 C21.99 67.45, 35.23 49.48, 76.89 1.91 M4.86 96.97 C26.23 70.3, 48.17 46.2, 87.52 1.88 M4.86 96.97 C37.3 60.94, 68.66 25.04, 87.52 1.88 M4.99 109.01 C29.41 82.51, 48.36 60.65, 98.15 1.85 M4.99 109.01 C24.28 86.26, 44.4 64.34, 98.15 1.85 M4.47 121.81 C40.79 84.38, 66.87 49, 108.78 1.81 M4.47 121.81 C43.29 76.39, 86.92 31.28, 108.78 1.81 M4.6 133.85 C50.49 82.52, 90.16 27.61, 119.41 1.78 M4.6 133.85 C40.26 93.7, 75.66 50.1, 119.41 1.78 M4.73 145.89 C28.89 115.91, 51.82 85.78, 130.04 1.74 M4.73 145.89 C38.83 102.61, 76.36 63.54, 130.04 1.74 M4.87 157.93 C35.62 113.39, 70.35 73.46, 140.67 1.71 M4.87 157.93 C34.95 118.74, 67.61 79.89, 140.67 1.71 M5 169.97 C42.35 118.02, 89.08 74.44, 150.65 2.43 M5 169.97 C41.21 128.96, 79.86 83.12, 150.65 2.43 M4.48 182.77 C56.12 119.71, 111.7 57.89, 161.28 2.39 M4.48 182.77 C54.6 129.26, 103.35 74.58, 161.28 2.39 M4.61 194.81 C47.65 145.93, 95.22 89.98, 171.91 2.36 M4.61 194.81 C41.96 148.96, 83.33 102.07, 171.91 2.36 M4.74 206.85 C53.85 151.41, 104.98 95.97, 182.54 2.32 M4.74 206.85 C53.01 152.7, 98.44 99.13, 182.54 2.32 M4.88 218.89 C69.49 150.24, 133.93 73.43, 193.17 2.29 M4.88 218.89 C54.87 163.55, 105.28 102.14, 193.17 2.29 M5.01 230.93 C73.93 143.12, 150.04 59.42, 203.8 2.26 M5.01 230.93 C61.84 163.96, 121.84 93.78, 203.8 2.26 M4.49 243.73 C57.59 188.87, 101.87 129.63, 214.43 2.22 M4.49 243.73 C70.79 166.74, 135.95 91.15, 214.43 2.22 M4.62 255.77 C75.55 172.69, 143.77 90.4, 225.06 2.19 M4.62 255.77 C52.17 198.14, 101.55 142.13, 225.06 2.19 M4.75 267.81 C51.68 214.22, 96.2 162.31, 235.69 2.15 M4.75 267.81 C67.81 196.47, 131.24 123.71, 235.69 2.15 M4.89 279.85 C76.78 196.17, 149.24 117.14, 246.32 2.12 M4.89 279.85 C73.25 207.16, 141.02 129.15, 246.32 2.12 M5.02 291.89 C58.35 226.29, 117.42 164.98, 256.95 2.08 M5.02 291.89 C99.1 179.28, 195.64 70.26, 256.95 2.08 M4.5 304.69 C68.52 235.29, 127.57 161.5, 267.58 2.05 M4.5 304.69 C89.82 208.64, 175.7 111.29, 267.58 2.05 M4.63 316.73 C107.85 193.93, 210.74 77.91, 278.21 2.01 M4.63 316.73 C112.84 196.98, 220.54 73.63, 278.21 2.01 M4.76 328.77 C101.64 220.65, 191.72 117.34, 288.84 1.98 M4.76 328.77 C76.57 246.94, 150.92 162.27, 288.84 1.98 M4.9 340.81 C89.19 238.48, 177.13 140.01, 299.47 1.94 M4.9 340.81 C116.11 209.79, 230.29 79.07, 299.47 1.94 M5.03 352.85 C116.2 229.51, 223.01 101.54, 310.1 1.91 M5.03 352.85 C72.49 278.04, 134.65 205.26, 310.1 1.91 M4.51 365.65 C106.07 252.01, 203.52 141.37, 320.73 1.88 M4.51 365.65 C124.32 230.1, 242.57 94.22, 320.73 1.88 M4.64 377.69 C123.12 235.96, 246.96 95.38, 331.36 1.84 M4.64 377.69 C109.38 253.29, 217.09 131.12, 331.36 1.84 M4.77 389.73 C98.36 277.24, 193.73 167.01, 341.99 1.81 M4.77 389.73 C108.25 272.06, 212.23 152.51, 341.99 1.81 M4.91 401.77 C73.74 319.56, 143.13 240.24, 352.62 1.77 M4.91 401.77 C137.46 246.6, 272.98 92.44, 352.62 1.77 M5.04 413.81 C145.32 250.01, 286.19 90.07, 363.25 1.74 M5.04 413.81 C90.87 310.7, 179.99 208.24, 363.25 1.74 M4.52 426.6 C124.32 294.07, 241.86 158.11, 373.88 1.7 M4.52 426.6 C77.39 339.01, 151.42 253.32, 373.88 1.7 M4.65 438.65 C135.81 288.64, 264.61 139.44, 383.85 2.42 M4.65 438.65 C155.46 266.35, 303.78 95.99, 383.85 2.42 M4.78 450.69 C86.33 352.43, 167.65 258.97, 394.48 2.39 M4.78 450.69 C82.19 357.86, 160.76 265.98, 394.48 2.39 M4.92 462.73 C151.11 299.05, 293.15 132.22, 403.14 4.62 M4.92 462.73 C111.9 343.16, 217.6 221.08, 403.14 4.62 M5.05 474.77 C166.7 289.39, 328.71 103.26, 413.12 5.34 M5.05 474.77 C108.49 349.9, 214.08 227.62, 413.12 5.34 M4.53 487.56 C165.26 301.07, 328.66 114.23, 417.84 12.1 M4.53 487.56 C137.97 334.98, 271.51 180.87, 417.84 12.1 M4.66 499.6 C92.8 406.56, 174.22 310.88, 422.57 18.85 M4.66 499.6 C112.99 374.7, 221.4 248.18, 422.57 18.85 M4.79 511.65 C132.86 362.72, 265.76 212, 424.01 29.39 M4.79 511.65 C146.42 344.22, 291.46 177.89, 424.01 29.39 M4.93 523.69 C163.81 339.68, 327.64 152.35, 428.74 36.14 M4.93 523.69 C141.85 366.24, 281.42 206.57, 428.74 36.14 M5.06 535.73 C136.1 383.05, 267.25 231.22, 428.87 48.18 M5.06 535.73 C108.85 417, 211.44 298.43, 428.87 48.18 M4.54 548.52 C139.15 390, 275.29 231.22, 429.01 60.23 M4.54 548.52 C95.19 446.47, 183.89 343.39, 429.01 60.23 M4.67 560.56 C129.23 415.94, 253.59 271.1, 428.48 73.02 M4.67 560.56 C109.89 435.96, 215.6 314.06, 428.48 73.02 M4.8 572.6 C94.1 470.83, 186.21 363.52, 428.62 85.06 M4.8 572.6 C126.51 432.7, 246.84 295.44, 428.62 85.06 M4.93 584.65 C132.2 439.73, 262.63 289.24, 428.75 97.1 M4.93 584.65 C144.19 420.99, 285.07 258.76, 428.75 97.1 M5.07 596.69 C120.91 456.44, 244.55 317.03, 428.88 109.14 M5.07 596.69 C153.78 424.81, 300.93 254.5, 428.88 109.14 M4.54 609.48 C130.38 466.53, 255.27 324.54, 429.02 121.18 M4.54 609.48 C167.45 421.29, 332.57 230.02, 429.02 121.18 M4.68 621.52 C165.02 439.76, 321.71 258.73, 428.49 133.98 M4.68 621.52 C107.85 502.27, 211.44 382.89, 428.49 133.98 M4.81 633.56 C149.38 461.27, 297.94 292.56, 428.63 146.02 M4.81 633.56 C108.12 519.71, 209.74 403.96, 428.63 146.02 M4.94 645.6 C153.54 479.97, 297.9 312.54, 428.76 158.06 M4.94 645.6 C100.26 534.48, 198.73 421.53, 428.76 158.06 M4.42 658.4 C115.42 527.96, 226.72 402.83, 428.89 170.1 M4.42 658.4 C100.54 544.37, 198.82 433.79, 428.89 170.1 M4.55 670.44 C127.26 533.53, 246.78 396.09, 429.02 182.14 M4.55 670.44 C172.05 481.61, 339.29 288.07, 429.02 182.14 M4.69 682.48 C154.58 508.88, 305.29 332.77, 428.5 194.94 M4.69 682.48 C111.31 567.55, 213.47 449.56, 428.5 194.94 M4.82 694.52 C136.74 547.43, 265.15 399.7, 428.64 206.98 M4.82 694.52 C112.61 569.92, 220.13 445.37, 428.64 206.98 M4.95 706.56 C124.17 569.36, 244 429.69, 428.77 219.02 M4.95 706.56 C123.14 566.51, 242.93 429.74, 428.77 219.02 M4.43 719.36 C148.04 556.8, 286.32 395.17, 428.9 231.06 M4.43 719.36 C157.34 546.77, 307.82 373.38, 428.9 231.06 M4.56 731.4 C89.28 632.15, 176.75 530.09, 429.03 243.1 M4.56 731.4 C127.07 592.82, 246.71 453.83, 429.03 243.1 M4.7 743.44 C137.53 590.75, 272.79 434.66, 428.51 255.9 M4.7 743.44 C119.53 609.76, 233.73 479.09, 428.51 255.9 M4.83 755.48 C90.45 654.24, 181.06 551.24, 428.64 267.94 M4.83 755.48 C137.05 605.75, 268.11 454.42, 428.64 267.94 M4.96 767.52 C107.85 648.13, 212.88 529.27, 428.78 279.98 M4.96 767.52 C90.89 671.99, 176.33 574.52, 428.78 279.98 M4.44 780.32 C133.03 627, 262.34 476.91, 428.91 292.02 M4.44 780.32 C149.51 605.92, 298.2 436.57, 428.91 292.02 M4.57 792.36 C128.44 650.12, 256.65 503.46, 429.04 304.06 M4.57 792.36 C163.69 610.78, 323.47 425.35, 429.04 304.06 M4.71 804.4 C101.74 694.28, 197.36 582.09, 428.52 316.86 M4.71 804.4 C139.2 646.75, 276.69 489.46, 428.52 316.86 M4.84 816.44 C128.75 666.91, 258.19 520.49, 428.65 328.9 M4.84 816.44 C112 689.82, 222.55 564.8, 428.65 328.9 M4.97 828.48 C98.2 713.87, 197.51 601.34, 428.79 340.94 M4.97 828.48 C125.59 689.34, 243 552.94, 428.79 340.94 M4.45 841.28 C129.64 698.11, 256.77 552.1, 428.92 352.98 M4.45 841.28 C143.4 681.64, 283.07 519.78, 428.92 352.98 M4.58 853.32 C125.3 714.65, 245.74 575, 429.05 365.02 M4.58 853.32 C172.41 665.52, 338.5 475.03, 429.05 365.02 M4.72 865.36 C146.79 694.5, 292.6 526.73, 428.53 377.82 M4.72 865.36 C131.27 716.92, 260.17 568.96, 428.53 377.82 M4.85 877.4 C126.79 729.98, 249.84 588.24, 428.66 389.86 M4.85 877.4 C160.39 703.57, 313.57 527.18, 428.66 389.86 M4.98 889.44 C138.6 734.16, 276.11 577.37, 428.8 401.9 M4.98 889.44 C142.71 730.75, 278.48 572.92, 428.8 401.9 M5.12 901.48 C116.98 769.14, 232.9 636.6, 428.93 413.94 M5.12 901.48 C101.13 791.1, 195.65 682.49, 428.93 413.94 M9.84 908.24 C155.86 743.12, 296.96 581.11, 429.06 425.98 M9.84 908.24 C160.62 734.73, 311.9 561.06, 429.06 425.98 M15.22 914.24 C164.15 740.07, 314.27 564.97, 428.54 438.78 M15.22 914.24 C154.43 759.23, 292.54 601.9, 428.54 438.78 M23.89 916.47 C158.58 766.84, 290 613.04, 428.67 450.82 M23.89 916.47 C110.56 817.05, 196.52 717.52, 428.67 450.82 M33.2 917.95 C129.82 814.87, 220.79 706.85, 428.81 462.86 M33.2 917.95 C184.19 744.33, 334.11 572.79, 428.81 462.86 M43.83 917.91 C129.46 818.22, 217.46 718.19, 428.94 474.9 M43.83 917.91 C164.31 779.79, 282.44 644.58, 428.94 474.9 M54.46 917.88 C152.46 800.07, 251.04 687.62, 429.07 486.94 M54.46 917.88 C195.72 753.93, 337.87 590.83, 429.07 486.94 M65.09 917.84 C144.82 823.56, 222.08 732.92, 428.55 499.73 M65.09 917.84 C175.04 795.61, 281.93 672.12, 428.55 499.73 M75.72 917.81 C200.83 767.42, 331.63 620.72, 428.68 511.78 M75.72 917.81 C172.7 806.82, 270.12 694.77, 428.68 511.78 M86.35 917.77 C186.54 806.8, 284.03 693.15, 428.82 523.82 M86.35 917.77 C174 815.12, 265.7 710.93, 428.82 523.82 M96.98 917.74 C215.03 779.37, 333.9 639.68, 428.95 535.86 M96.98 917.74 C211.1 789.81, 323.52 658.74, 428.95 535.86 M107.61 917.71 C187.23 826.95, 268.64 734.58, 428.43 548.65 M107.61 917.71 C213.26 801.08, 317.44 682.1, 428.43 548.65 M118.24 917.67 C184.95 845.46, 248.07 774.02, 428.56 560.69 M118.24 917.67 C237.71 785.33, 353.29 651.04, 428.56 560.69 M128.87 917.64 C234.6 796.03, 341.05 676.76, 428.69 572.73 M128.87 917.64 C193.56 843.63, 256.38 769.69, 428.69 572.73 M138.85 918.36 C243.92 791.16, 353.49 668.02, 428.83 584.77 M138.85 918.36 C226.98 814.59, 315.34 713.13, 428.83 584.77 M149.48 918.32 C214.47 843.7, 280.32 770.8, 428.96 596.82 M149.48 918.32 C230.22 819.95, 312.67 724.79, 428.96 596.82 M160.11 918.29 C228 839.57, 294.5 762.43, 428.44 609.61 M160.11 918.29 C264.37 794.5, 370.06 674.23, 428.44 609.61 M170.74 918.25 C274.08 807.71, 372.61 689.11, 428.57 621.65 M170.74 918.25 C264.78 806.75, 361.18 695.3, 428.57 621.65 M181.37 918.22 C272.77 815.41, 358.43 711.04, 428.7 633.69 M181.37 918.22 C236.59 861.88, 289.25 800.49, 428.7 633.69 M192 918.18 C266.02 832.81, 342.23 747.52, 428.84 645.73 M192 918.18 C256.11 847.8, 319.87 776.87, 428.84 645.73 M202.63 918.15 C276.06 825.9, 357 736.65, 428.97 657.77 M202.63 918.15 C266.76 840.98, 330.73 766.35, 428.97 657.77 M213.26 918.12 C290.08 829.27, 361.88 746.81, 428.45 670.57 M213.26 918.12 C264.05 863.38, 312.51 808.95, 428.45 670.57 M223.89 918.08 C297.08 837.75, 372.93 750.55, 428.58 682.61 M223.89 918.08 C272.51 863.68, 324.32 805.87, 428.58 682.61 M234.52 918.05 C277.83 871.25, 319.92 821.34, 428.71 694.65 M234.52 918.05 C296.63 840.56, 360.87 768.36, 428.71 694.65 M245.15 918.01 C298.53 861.74, 350.02 800.41, 428.85 706.69 M245.15 918.01 C291.64 860.95, 340.9 806.08, 428.85 706.69 M255.78 917.98 C305.82 859.08, 353.38 805.45, 428.98 718.73 M255.78 917.98 C302.63 861.92, 351.97 802.85, 428.98 718.73 M266.41 917.94 C320.96 857.06, 369.74 798.46, 428.46 731.53 M266.41 917.94 C306.27 871.02, 346.38 824.38, 428.46 731.53 M277.04 917.91 C335.25 851.61, 391.64 783.38, 428.59 743.57 M277.04 917.91 C315.07 877.1, 351.29 834.89, 428.59 743.57 M287.67 917.87 C344.57 851.75, 401.84 785.33, 428.72 755.61 M287.67 917.87 C318.26 882.94, 350.07 848.28, 428.72 755.61 M298.3 917.84 C331.53 876.91, 368.42 837.96, 428.86 767.65 M298.3 917.84 C341.81 865.12, 387.24 814.08, 428.86 767.65 M308.93 917.8 C357.77 866.27, 395.94 814.88, 428.99 779.69 M308.93 917.8 C344.15 873.43, 379.46 834.71, 428.99 779.69 M319.56 917.77 C340.61 893.98, 360.14 861.36, 428.47 792.49 M319.56 917.77 C363.04 864.96, 406.47 818.1, 428.47 792.49 M330.19 917.74 C373.04 874.49, 410.84 825.95, 428.6 804.53 M330.19 917.74 C353.26 896.68, 371.14 872.37, 428.6 804.53 M340.82 917.7 C362.3 887.67, 390.65 868.42, 428.73 816.57 M340.82 917.7 C360.87 896.47, 380.66 871.44, 428.73 816.57 M351.45 917.67 C382.39 887.38, 407.06 853.66, 428.86 828.61 M351.45 917.67 C378.93 886.87, 405.05 854.95, 428.86 828.61 M362.08 917.63 C381.79 898.79, 400.3 874.03, 429 840.65 M362.08 917.63 C380.77 899.17, 395.25 879.45, 429 840.65 M372.05 918.35 C393.89 897.13, 412.27 877.05, 428.48 853.45 M372.05 918.35 C385.85 902.17, 397.96 887.16, 428.48 853.45 M382.68 918.32 C398.21 902.41, 416.07 879.52, 428.61 865.49 M382.68 918.32 C397.76 896.08, 415.56 878.27, 428.61 865.49 M393.31 918.28 C407.18 905.35, 421.16 892.61, 428.74 877.53 M393.31 918.28 C406.93 903.76, 420.69 888, 428.74 877.53 M406.57 915.23 C410 907.98, 417.78 897.86, 428.87 889.57 M406.57 915.23 C413.27 908.25, 420.55 897.99, 428.87 889.57" stroke="#ced4da" stroke-width="1" fill="none"></path><path d="M32 0 M32 0 C157.84 1.87, 280.5 3.49, 392 0 M32 0 C149.39 -2.34, 269.45 -0.69, 392 0 M392 0 C413.56 -1.45, 422.78 8.36, 424 32 M392 0 C410.57 -1.4, 427.53 13.31, 424 32 M424 32 C425.08 339.46, 422.33 645.7, 424 885 M424 32 C424.6 338.78, 424.25 646.31, 424 885 M424 885 C423.13 903.47, 412.97 913.25, 392 917 M424 885 C422.01 901.98, 411.08 916.48, 392 917 M392 917 C252.4 919.71, 113.27 919.15, 32 917 M392 917 C297.58 915.48, 200.02 915.63, 32 917 M32 917 C7.85 915.28, -2.94 903.35, 0 885 M32 917 C11.6 917.62, -4.27 903.04, 0 885 M0 885 C4.22 594.16, 6.59 302.16, 0 32 M0 885 C0.97 555.05, 1.45 224.13, 0 32 M0 32 C-3.99 11.2, 11.65 -0.09, 32 0 M0 32 C-2.09 13.26, 6.7 -3.01, 32 0" stroke="#364fc7" stroke-width="2" fill="none"></path></g><g transform="translate(367.0971450805664 517.7571319580077) rotate(0 116.98195648193365 21.599999999999994)"><text x="116.9819564819336" y="0" font-family="Virgil, Segoe UI Emoji" font-size="36px" fill="#364fc7" text-anchor="middle" style="white-space: pre;" direction="ltr" dominant-baseline="text-before-edge">nft_set_ext</text></g><g stroke-linecap="round" transform="translate(270.93603515625 124.28556823730469) rotate(0 211.50000000000006 95)"><path d="M29.73 3.67 L393.62 -0.87 L405.84 0.32 L413.89 7.56 L424.56 24.97 L419.25 154.23 L422.64 173.82 L409.02 187.78 L387.98 188.96 L34.67 189.75 L16.57 189.35 L3.25 181.01 L-1.42 164.8 L2.49 21.84 L8.25 4.04 L14.7 -0.13 L30.98 -0.37" stroke="none" stroke-width="0" fill="#ced4da"></path><path d="M32 0 M32 0 C142.01 -1.8, 254.53 0.63, 391 0 M32 0 C103.95 -4.54, 177.04 -4.19, 391 0 M391 0 C412.95 -1.2, 419.48 11.58, 423 32 M391 0 C409.84 0.58, 425.14 10.89, 423 32 M423 32 C426.13 65.86, 422.21 100.29, 423 158 M423 32 C422.21 76.42, 422.77 116.56, 423 158 M423 158 C421.85 182.5, 409.12 193.95, 391 190 M423 158 C426.48 181.81, 407.78 192.89, 391 190 M391 190 C260.48 190.4, 131.14 188.02, 32 190 M391 190 C254.61 190.5, 115.87 189.24, 32 190 M32 190 C8.21 190.37, 2.85 181.93, 0 158 M32 190 C6.11 188.36, 0.7 178.6, 0 158 M0 158 C-3.26 119.86, 1.8 89.6, 0 32 M0 158 C-3.17 115.84, -2.76 72.17, 0 32 M0 32 C-0.54 13.14, 6.69 2.73, 32 0 M0 32 C-2.22 6.25, 12.78 -4.08, 32 0" stroke="#364fc7" stroke-width="2" fill="none"></path></g><g transform="translate(317.19610595703125 176.0855682373047) rotate(0 165.2399291992188 43.199999999999996)"><text x="165.23992919921875" y="0" font-family="Virgil, Segoe UI Emoji" font-size="36px" fill="#364fc7" text-anchor="middle" style="white-space: pre;" direction="ltr" dominant-baseline="text-before-edge">u8 offsets[]</text><text x="165.23992919921875" y="43.199999999999996" font-family="Virgil, Segoe UI Emoji" font-size="36px" fill="#364fc7" text-anchor="middle" style="white-space: pre;" direction="ltr" dominant-baseline="text-before-edge">(array of offsets)</text></g><g stroke-linecap="round"><g transform="translate(701.7932128906247 145.99998474121094) rotate(0 64.0141707984086 86.34922081068156)"><path d="M-1.12 -2.54 C20.1 12.39, 128.09 59.92, 127.76 89.06 C127.42 118.2, 18.31 158.61, -3.13 172.29 M3.46 2.25 C25.49 17.6, 134.16 63.19, 132.79 92.03 C131.42 120.86, 18.61 161.76, -4.77 175.24" stroke="#364fc7" stroke-width="2" fill="none"></path></g><g transform="translate(701.7932128906247 145.99998474121094) rotate(0 64.0141707984086 86.34922081068156)"><path d="M12.84 150.45 C7.95 160.98, 2.6 170.9, -6.87 175.62 M15.95 155.63 C9.39 160.27, 2.93 167.27, -3.02 175.93" stroke="#364fc7" stroke-width="2" fill="none"></path></g><g transform="translate(701.7932128906247 145.99998474121094) rotate(0 64.0141707984086 86.34922081068156)"><path d="M21.49 169.06 C13.95 173.67, 5.88 177.73, -6.87 175.62 M24.6 174.24 C15.53 173.54, 6.53 175.07, -3.02 175.93" stroke="#364fc7" stroke-width="2" fill="none"></path></g></g><mask></mask><g stroke-linecap="round"><g transform="translate(698.3646240234372 187.14286804199213) rotate(0 78.36687694934892 153.8143402371742)"><path d="M1.52 2.52 C26.95 35.64, 150.16 149.19, 152.77 199.8 C155.39 250.42, 39.76 288.62, 17.22 306.2 M-1.1 1.43 C25.14 34.8, 153.76 152.62, 157.74 202.71 C161.71 252.79, 46.21 285.73, 22.76 301.96" stroke="#364fc7" stroke-width="2" fill="none"></path></g><g transform="translate(698.3646240234372 187.14286804199213) rotate(0 78.36687694934892 153.8143402371742)"><path d="M47.42 276.8 C35.61 283.97, 34.43 291, 24.87 303.11 M44.28 282.07 C34.02 289.23, 28.57 294.88, 23.74 300.99" stroke="#364fc7" stroke-width="2" fill="none"></path></g><g transform="translate(698.3646240234372 187.14286804199213) rotate(0 78.36687694934892 153.8143402371742)"><path d="M56.23 295.33 C41.56 296.91, 37.68 298.24, 24.87 303.11 M53.09 300.6 C39.85 300.74, 31.1 299.44, 23.74 300.99" stroke="#364fc7" stroke-width="2" fill="none"></path></g></g><mask></mask><g stroke-linecap="round"><g transform="translate(700.6503906249997 245.42854309082026) rotate(0 92.2886101477227 237.97426943376948)"><path d="M1.34 1.96 C32.39 57.78, 184.43 253.42, 185.94 332.32 C187.46 411.23, 39.59 451.94, 10.44 475.39 M-1.38 0.56 C29.3 56.87, 181.95 256.18, 183.52 334.58 C185.09 412.97, 36.72 447.45, 8.02 470.93" stroke="#364fc7" stroke-width="2" fill="none"></path></g><g transform="translate(700.6503906249997 245.42854309082026) rotate(0 92.2886101477227 237.97426943376948)"><path d="M31.6 448.8 C18.81 454.1, 19.28 461.19, 7.49 474.08 M26.82 447.77 C22.13 457.2, 15.94 463.58, 8.97 471.61" stroke="#364fc7" stroke-width="2" fill="none"></path></g><g transform="translate(700.6503906249997 245.42854309082026) rotate(0 92.2886101477227 237.97426943376948)"><path d="M40.65 467.22 C25.61 467.32, 23.47 469.12, 7.49 474.08 M35.87 466.19 C28.02 469.22, 18.78 469.39, 8.97 471.61" stroke="#364fc7" stroke-width="2" fill="none"></path></g></g><mask></mask><g mask="url(#mask-EJAxoiLd4e12B9CtCf1rX)" stroke-linecap="round"><g transform="translate(257.221923828125 328.8571319580078) rotate(0 -68.35792326549029 327.6351988670229)"><path d="M-2.08 -0.36 C-24.73 49.91, -137.5 192.23, -137.11 302 C-136.72 411.78, -22.05 598.92, 0.26 658.29 M1.99 -3.02 C-20.81 47.52, -138.35 195.05, -138.71 304.55 C-139.07 414.05, -22.75 595.87, -0.17 654" stroke="#364fc7" stroke-width="2" fill="none"></path></g><g transform="translate(257.221923828125 328.8571319580078) rotate(0 -68.35792326549029 327.6351988670229)"><path d="M-7.33 30.95 C-8.54 25.37, -1.21 12.72, 1.06 0.48 M-7.55 27.46 C-3.43 18.34, -3.63 6.66, -0.49 0.63" stroke="#364fc7" stroke-width="2" fill="none"></path></g><g transform="translate(257.221923828125 328.8571319580078) rotate(0 -68.35792326549029 327.6351988670229)"><path d="M-25.26 20.97 C-21.84 18.21, -9.9 8.13, 1.06 0.48 M-25.48 17.48 C-14.41 12.4, -7.73 4.55, -0.49 0.63" stroke="#364fc7" stroke-width="2" fill="none"></path></g><g transform="translate(257.221923828125 328.8571319580078) rotate(0 -68.35792326549029 327.6351988670229)"><path d="M-22.41 635 C-19.12 642.58, -7.42 642.85, 2.96 654.84 M-22.63 631.51 C-11.63 641.9, -5.31 649.53, 1.42 654.98" stroke="#364fc7" stroke-width="2" fill="none"></path></g><g transform="translate(257.221923828125 328.8571319580078) rotate(0 -68.35792326549029 327.6351988670229)"><path d="M-4.03 625.87 C-5.43 635.52, 1.55 638.13, 2.96 654.84 M-4.25 622.38 C-0.24 636.06, -0.98 647.19, 1.42 654.98" stroke="#364fc7" stroke-width="2" fill="none"></path></g></g><mask id="mask-EJAxoiLd4e12B9CtCf1rX"><rect x="0" y="0" fill="#fff" width="495.50787353515625" height="1084.8568878173826"></rect><rect x="10" y="611.2571319580077" fill="#000" width="217.8719482421875" height="43.199999999999996" opacity="1"></rect></mask><g transform="translate(10 611.2571319580077) rotate(0 178.86400056263471 45.23519886702303)"><text x="108.93597412109375" y="0" font-family="Virgil, Segoe UI Emoji" font-size="36px" fill="#364fc7" text-anchor="middle" style="white-space: pre;" direction="ltr" dominant-baseline="text-before-edge">char data[]</text></g><g transform="translate(309.79321289062545 10) rotate(0 183.09594726562506 21.599999999999994)"><text x="0" y="0" font-family="Virgil, Segoe UI Emoji" font-size="36px" fill="#364fc7" text-anchor="start" style="white-space: pre;" direction="ltr" dominant-baseline="text-before-edge">struct nft_set_ext</text></g></svg>