<svg version="1.1" xmlns="http://www.w3.org/2000/svg" viewBox="0 0 957.5582927522206 1225.6299821914185" width="957.5582927522206" height="1225.6299821914185">
  <!-- svg-source:excalidraw -->
  
  <defs>
    <style class="style-fonts">
      @font-face {
        font-family: "Virgil";
        src: url("https://excalidraw.com/Virgil.woff2");
      }
      @font-face {
        font-family: "Cascadia";
        src: url("https://excalidraw.com/Cascadia.woff2");
      }
    </style>
  </defs>
  <g stroke-linecap="round" transform="translate(10 122.02041544233055) rotate(0 98.5 208.5)"><path d="M7.86 8.16 C7.86 8.16, 7.86 8.16, 7.86 8.16 M7.86 8.16 C7.86 8.16, 7.86 8.16, 7.86 8.16 M3.66 19.09 C8.07 11.7, 12.59 9.8, 18.1 2.48 M3.66 19.09 C8.27 13.61, 14.73 6.79, 18.1 2.48 M2.75 26.24 C7.42 19.39, 13.98 14.35, 24.4 1.33 M2.75 26.24 C7.74 20.52, 12.8 15.9, 24.4 1.33 M2.48 32.64 C13.51 20.75, 23.55 7.32, 30.7 0.18 M2.48 32.64 C8.79 25.52, 13.81 17.99, 30.7 0.18 M2.88 38.28 C9.23 31.43, 17.68 20.27, 34.37 2.05 M2.88 38.28 C15.87 24.5, 26.61 11.11, 34.37 2.05 M2.62 44.68 C10.35 34.35, 22.42 24.6, 39.36 2.41 M2.62 44.68 C11.99 32.71, 24.47 20.33, 39.36 2.41 M2.36 51.07 C17.86 32.43, 34.26 13.38, 45 2.02 M2.36 51.07 C17.12 33.35, 31.43 16.84, 45 2.02 M2.75 56.72 C18.65 41.39, 32.89 21.93, 49.99 2.38 M2.75 56.72 C14.62 43.01, 26.87 28.57, 49.99 2.38 M2.49 63.11 C22.59 38.28, 43.52 13.66, 55.63 1.98 M2.49 63.11 C22.83 38.69, 43.84 15.85, 55.63 1.98 M2.88 68.76 C18.93 54.01, 30.73 39.7, 60.62 2.34 M2.88 68.76 C26.65 43.12, 48.58 17.39, 60.62 2.34 M2.62 75.16 C17 62.38, 29.03 47.31, 66.26 1.95 M2.62 75.16 C19.57 52.77, 39.11 32.8, 66.26 1.95 M2.36 81.55 C18.04 61.97, 33.04 44.94, 71.25 2.31 M2.36 81.55 C20.69 61.36, 39.12 39.13, 71.25 2.31 M2.76 87.2 C28.23 61.71, 50.64 35.17, 76.89 1.91 M2.76 87.2 C22.44 65.27, 40 43.28, 76.89 1.91 M2.49 93.59 C19.03 72.1, 38.53 54.73, 81.88 2.27 M2.49 93.59 C21.44 71.43, 41.33 49.8, 81.88 2.27 M2.23 99.99 C32.06 63.69, 66.21 26.87, 87.52 1.88 M2.23 99.99 C25.24 73.52, 49.32 47, 87.52 1.88 M2.63 105.64 C30.86 74.39, 58.15 40.94, 92.51 2.24 M2.63 105.64 C35.52 68.02, 67.69 30.39, 92.51 2.24 M2.37 112.03 C24.52 83.4, 49.19 55.47, 97.49 2.6 M2.37 112.03 C34.4 75.63, 65.94 38.73, 97.49 2.6 M2.76 117.68 C32.78 85.46, 62.33 53.1, 103.14 2.21 M2.76 117.68 C31.95 85.44, 59.58 52.9, 103.14 2.21 M2.5 124.07 C39.37 79.28, 76.34 35.84, 108.12 2.57 M2.5 124.07 C24.23 98.31, 46.42 71.91, 108.12 2.57 M2.24 130.47 C35.03 93.56, 70.99 52.82, 113.77 2.17 M2.24 130.47 C38.58 89.05, 76.72 47.51, 113.77 2.17 M2.63 136.11 C42.09 87.98, 84.37 43.79, 118.76 2.53 M2.63 136.11 C34.58 96.94, 67.79 60.16, 118.76 2.53 M2.37 142.51 C26.99 114.49, 51.99 85.28, 124.4 2.14 M2.37 142.51 C32.74 108.79, 61.44 74.99, 124.4 2.14 M2.77 148.16 C51.99 93.58, 101.59 36.88, 129.39 2.5 M2.77 148.16 C40.73 104.2, 77.47 61.46, 129.39 2.5 M2.5 154.55 C36.83 115.39, 66.18 78.43, 135.03 2.1 M2.5 154.55 C30.42 122.61, 60.4 90.04, 135.03 2.1 M2.24 160.95 C45.43 111.68, 83.95 67.86, 140.02 2.46 M2.24 160.95 C32.34 126.66, 63.06 90.62, 140.02 2.46 M2.64 166.59 C47.81 113.48, 89.54 62.64, 145 2.82 M2.64 166.59 C42.86 119.7, 84.66 71.43, 145 2.82 M2.38 172.99 C33.78 136.33, 62.95 101.91, 150.65 2.43 M2.38 172.99 C57.87 107.29, 115.76 42.04, 150.65 2.43 M2.11 179.39 C51.71 122.77, 102.13 66.68, 155.63 2.79 M2.11 179.39 C55.54 116.46, 111.1 52.51, 155.63 2.79 M2.51 185.03 C50.2 131.08, 100.99 73.6, 161.28 2.39 M2.51 185.03 C58.85 118.56, 115.21 55.31, 161.28 2.39 M2.25 191.43 C40.34 147.64, 79.36 103.07, 166.26 2.75 M2.25 191.43 C53.2 129.19, 105.48 68.88, 166.26 2.75 M2.64 197.07 C49.5 139.15, 101.52 81.54, 173.22 0.85 M2.64 197.07 C41 153.36, 80.05 108.3, 173.22 0.85 M2.38 203.47 C41.18 157.54, 82.21 111.7, 177.55 1.96 M2.38 203.47 C64.34 131.71, 127.91 57.76, 177.55 1.96 M2.12 209.87 C55.98 146.4, 112.48 82.76, 181.22 3.83 M2.12 209.87 C67.36 137.85, 130.64 63.83, 181.22 3.83 M2.51 215.51 C67.13 141.94, 128.1 70.72, 184.9 5.7 M2.51 215.51 C50.96 157.07, 99 100.61, 184.9 5.7 M2.25 221.91 C44.7 172.72, 86.98 123.52, 187.92 8.33 M2.25 221.91 C43.66 173.42, 85.93 124.37, 187.92 8.33 M2.65 227.55 C39.51 181.34, 76.58 139.69, 191.59 10.2 M2.65 227.55 C62.55 160.78, 121.97 92.7, 191.59 10.2 M2.39 233.95 C72.18 153.95, 140.05 76.52, 193.95 13.58 M2.39 233.95 C73.34 152.64, 145 70.15, 193.95 13.58 M2.12 240.35 C63.2 170.15, 123.5 99.67, 195.01 18.46 M2.12 240.35 C70.82 161.37, 139.93 82.77, 195.01 18.46 M2.52 245.99 C70.89 169.28, 137.3 93, 196.06 23.35 M2.52 245.99 C55.3 186.08, 107.84 123.68, 196.06 23.35 M2.26 252.39 C78.65 165.47, 155.56 77.13, 196.45 29 M2.26 252.39 C71.33 173.85, 141.45 93.7, 196.45 29 M2 258.79 C49.38 202.4, 98.19 144.57, 198.16 33.13 M2 258.79 C48.56 204.86, 96.88 150.42, 198.16 33.13 M2.39 264.43 C77.82 176.47, 155.89 88.63, 197.9 39.53 M2.39 264.43 C54.93 201.62, 109.29 140.84, 197.9 39.53 M2.13 270.83 C56.94 205.48, 114.46 141.83, 198.29 45.17 M2.13 270.83 C66.58 196.35, 132.35 119.97, 198.29 45.17 M2.52 276.47 C56.34 213.14, 110.65 152.94, 198.03 51.57 M2.52 276.47 C68.18 201.1, 134.59 125.55, 198.03 51.57 M2.26 282.87 C58.86 218.76, 115.67 154.56, 198.42 57.21 M2.26 282.87 C51.9 226.29, 101.5 168.98, 198.42 57.21 M2 289.27 C56.98 223.07, 113.48 160.48, 198.16 63.61 M2 289.27 C77.68 201.08, 154.11 113.74, 198.16 63.61 M2.4 294.91 C46.48 246.32, 89.08 198.65, 197.9 70.01 M2.4 294.91 C49.37 240.29, 97.55 187.09, 197.9 70.01 M2.13 301.31 C52.62 246, 100.31 188.18, 198.3 75.65 M2.13 301.31 C71.87 219.71, 141.32 137.34, 198.3 75.65 M2.53 306.95 C58.88 241.5, 116.43 173.72, 198.03 82.05 M2.53 306.95 C77.78 218.79, 152.28 132.84, 198.03 82.05 M2.27 313.35 C54.55 250.06, 108.04 188.08, 198.43 87.69 M2.27 313.35 C74.51 233.17, 144.53 152.82, 198.43 87.69 M2.01 319.75 C51.96 263.05, 99.43 210.23, 198.17 94.09 M2.01 319.75 C64.28 249.53, 124.58 178.61, 198.17 94.09 M2.4 325.39 C51.76 268.84, 100.24 211.58, 197.91 100.49 M2.4 325.39 C40.58 280.47, 79.25 236.42, 197.91 100.49 M2.14 331.79 C50.4 275.8, 96.58 220.51, 198.3 106.13 M2.14 331.79 C58.71 265.09, 114.84 198.13, 198.3 106.13 M2.53 337.43 C70.66 259.17, 140.43 183.03, 198.04 112.53 M2.53 337.43 C60.34 273.77, 116.78 208.36, 198.04 112.53 M2.27 343.83 C78.06 254.51, 153.69 166.99, 198.43 118.17 M2.27 343.83 C69.44 268.06, 134.83 192.66, 198.43 118.17 M2.01 350.23 C65.88 275.18, 130.34 202.81, 198.17 124.57 M2.01 350.23 C62.92 277.84, 125.16 205.96, 198.17 124.57 M2.4 355.87 C44.32 306.76, 85.4 260.77, 197.91 130.97 M2.4 355.87 C60.16 290.34, 118.42 223.4, 197.91 130.97 M2.14 362.27 C45.75 310.68, 89.72 262.03, 198.31 136.61 M2.14 362.27 C77.48 276.21, 151.29 190.54, 198.31 136.61 M1.88 368.66 C79.62 283.89, 153.83 193.87, 198.04 143.01 M1.88 368.66 C73.45 286.86, 145.89 202.72, 198.04 143.01 M2.28 374.31 C54.84 316.03, 103.11 259.54, 198.44 148.65 M2.28 374.31 C50.22 319.79, 99.02 264.29, 198.44 148.65 M2.02 380.71 C44.22 332.03, 85.58 285.33, 198.18 155.05 M2.02 380.71 C78.55 292.08, 155.39 203.47, 198.18 155.05 M1.75 387.1 C65.97 312.75, 130.38 239.43, 197.92 161.45 M1.75 387.1 C61.35 320.35, 120.35 252.85, 197.92 161.45 M2.8 391.99 C66.23 320.29, 128.82 248.82, 198.31 167.09 M2.8 391.99 C70.58 311.12, 140.52 232.48, 198.31 167.09 M1.89 399.14 C67.62 320.33, 135.61 243.96, 198.05 173.49 M1.89 399.14 C78.85 311.44, 156.55 222.99, 198.05 173.49 M3.59 403.28 C74.59 321.16, 146.69 236.33, 198.44 179.13 M3.59 403.28 C56.42 342.48, 109.01 283.21, 198.44 179.13 M6.61 405.9 C53.38 351.59, 100.9 296.47, 198.18 185.53 M6.61 405.9 C80.31 320.3, 154.78 234.91, 198.18 185.53 M8.98 409.28 C80.75 327.74, 151.8 246.92, 197.92 191.92 M8.98 409.28 C67.88 343.66, 124.74 277.51, 197.92 191.92 M11.99 411.91 C48.94 369.19, 88.37 325.36, 198.31 197.57 M11.99 411.91 C56.29 360.47, 100.68 310.66, 198.31 197.57 M15.01 414.53 C79.29 341.59, 145.27 266.43, 198.05 203.97 M15.01 414.53 C62.98 357.85, 112.95 300.76, 198.05 203.97 M19.34 415.64 C62.8 364.49, 108.82 310.77, 198.45 209.61 M19.34 415.64 C67.6 359.48, 116.13 303.6, 198.45 209.61 M23.02 417.51 C72.42 360.25, 121.58 301.89, 198.19 216.01 M23.02 417.51 C77.49 354.41, 131.29 292.86, 198.19 216.01 M27.35 418.63 C63.43 375.38, 98.42 334.91, 197.93 222.4 M27.35 418.63 C85.54 352.27, 142.91 287.24, 197.93 222.4 M32.34 418.99 C89.23 352.4, 147.12 286.75, 198.32 228.05 M32.34 418.99 C68.34 378.25, 103.84 336.46, 198.32 228.05 M37.98 418.59 C97.6 350.64, 156.25 281.36, 198.06 234.44 M37.98 418.59 C75.9 371.82, 114.03 328.06, 198.06 234.44 M42.97 418.95 C85.89 367.73, 129.12 318.08, 198.45 240.09 M42.97 418.95 C94.75 361.73, 145.91 302.17, 198.45 240.09 M48.61 418.56 C83.66 380.18, 116.61 340.79, 198.19 246.49 M48.61 418.56 C95.52 364.35, 143.07 310.35, 198.19 246.49 M53.6 418.92 C88.91 379.34, 126.54 336.53, 197.93 252.88 M53.6 418.92 C84.89 383.29, 114.39 347.72, 197.93 252.88 M58.58 419.28 C105.63 364.01, 152.27 308.93, 198.32 258.53 M58.58 419.28 C97.95 376.08, 135.13 331.64, 198.32 258.53 M64.23 418.89 C110.98 364.03, 159.48 310.87, 198.06 264.92 M64.23 418.89 C91.33 388.47, 118.05 357.87, 198.06 264.92 M69.21 419.25 C103.92 379.02, 134.01 343.32, 198.46 270.57 M69.21 419.25 C108.61 375.53, 146.74 331.34, 198.46 270.57 M74.86 418.85 C113.69 377.51, 151.14 334.89, 198.2 276.97 M74.86 418.85 C104.88 385.33, 134.99 350.55, 198.2 276.97 M79.84 419.21 C108.35 388.15, 131.4 359.66, 197.93 283.36 M79.84 419.21 C128 365.53, 174.77 310.48, 197.93 283.36 M85.49 418.82 C129.28 369.49, 171.76 319.63, 198.33 289.01 M85.49 418.82 C112.1 386.6, 138.9 356.36, 198.33 289.01 M90.47 419.18 C114.64 390.98, 139.65 359.01, 198.07 295.4 M90.47 419.18 C118.18 389.25, 146.52 357.56, 198.07 295.4 M96.12 418.78 C122.06 388.19, 148.25 357.51, 198.46 301.05 M96.12 418.78 C131.57 378.81, 168.11 337.07, 198.46 301.05 M101.1 419.14 C119.31 395.17, 139.44 371.93, 198.2 307.44 M101.1 419.14 C134.02 380.62, 167.14 341.48, 198.2 307.44 M106.75 418.75 C144.8 379.42, 180.69 337.54, 197.94 313.84 M106.75 418.75 C129.52 394.31, 149.84 370.26, 197.94 313.84 M111.73 419.11 C128.09 397.2, 145.92 377.42, 198.33 319.49 M111.73 419.11 C131.89 393.98, 152.3 369.37, 198.33 319.49 M116.72 419.47 C135.91 400.61, 152.23 377.29, 198.07 325.88 M116.72 419.47 C137.16 397.16, 157.76 373.79, 198.07 325.88 M122.36 419.07 C136.49 400.81, 152.7 382.98, 198.47 331.53 M122.36 419.07 C145.59 391.55, 168.89 364.64, 198.47 331.53 M127.35 419.43 C150.55 393.9, 173.16 365.41, 198.21 337.92 M127.35 419.43 C143.47 399.19, 161.68 380.07, 198.21 337.92 M132.99 419.04 C155.45 392.13, 179.11 366.12, 197.94 344.32 M132.99 419.04 C157.41 389.86, 183.05 361.64, 197.94 344.32 M137.98 419.4 C161.24 392.99, 181.89 367.67, 198.34 349.97 M137.98 419.4 C158.98 394.51, 181.09 370.53, 198.34 349.97 M143.62 419 C159.61 402.96, 171.31 384.11, 198.08 356.36 M143.62 419 C163.71 396.33, 182.91 374.67, 198.08 356.36 M148.61 419.36 C161.39 405.03, 174.83 389.43, 198.47 362.01 M148.61 419.36 C159.63 407.26, 170.62 395.03, 198.47 362.01 M154.25 418.97 C170.63 400.16, 189.02 383.19, 198.21 368.4 M154.25 418.97 C168.08 403.41, 181.99 386.14, 198.21 368.4 M159.24 419.33 C170.63 410.12, 178.33 395.59, 197.95 374.8 M159.24 419.33 C171.54 403.37, 186.02 389.24, 197.95 374.8 M166.2 417.43 C176.24 405.25, 189.41 391.19, 198.34 380.44 M166.2 417.43 C173.92 409.89, 180.2 400.11, 198.34 380.44 M171.84 417.03 C175.89 411.64, 183.57 403.19, 198.74 386.09 M171.84 417.03 C181.22 405.38, 191.41 394.2, 198.74 386.09 M178.14 415.88 C184.23 408.09, 189.21 401.36, 197.82 393.24 M178.14 415.88 C184.19 409.81, 190.35 403.13, 197.82 393.24" stroke="#868e96" stroke-width="0.5" fill="none"></path><path d="M32 0 M32 0 C73.67 -3.21, 118.08 -2.41, 165 0 M32 0 C78.06 0.52, 126.46 -0.81, 165 0 M165 0 C187.45 -1.39, 195.16 9.79, 197 32 M165 0 C186.96 1.5, 195.18 11.62, 197 32 M197 32 C195.59 148.94, 195.8 267.83, 197 385 M197 32 C197.82 164.34, 197.53 296.98, 197 385 M197 385 C198.54 405.54, 184.54 416.52, 165 417 M197 385 C197.76 405.04, 185.8 417.47, 165 417 M165 417 C127.76 416.72, 86.86 417.18, 32 417 M165 417 C133.18 415.98, 100.9 415.15, 32 417 M32 417 C8.75 418.92, -0.79 406.76, 0 385 M32 417 C8.53 415.19, -0.9 406.69, 0 385 M0 385 C-0.79 301.7, -1.15 218.46, 0 32 M0 385 C-2.45 260.04, -1.97 136.66, 0 32 M0 32 C1.14 11.63, 9 -0.5, 32 0 M0 32 C0 9.5, 9.95 1.03, 32 0" stroke="#495057" stroke-width="1" fill="none"></path></g><g transform="translate(53 318.02041544233055) rotate(0 55.5 12.5)"><text x="55.5" y="17" font-family="Virgil, Segoe UI Emoji" font-size="20px" fill="#495057" text-anchor="middle" style="white-space: pre;" direction="ltr">kmalloc-xxx</text></g><g stroke-linecap="round" transform="translate(13.836338588169724 374.6666131700789) rotate(0 94.857177734375 39.714263916015625)"><path d="M18.35 -1.02 L168.49 1.07 L178.89 0.79 L184.33 3.99 L190.55 15.33 L189.09 61.43 L189.32 70.18 L183 75.61 L168.89 80.43 L18.08 79.01 L12.13 76.44 L6.23 73.23 L-0.17 65.66 L-0.55 14.64 L4.07 6.88 L9.24 1.14 L20.3 -1.24" stroke="none" stroke-width="0" fill="#ffffff"></path><path d="M19.86 0 M19.86 0 C70.01 0.76, 118.12 -2.5, 169.86 0 M169.86 0 C182.91 -0.39, 191.56 8.07, 189.71 19.86 M189.71 19.86 C189.15 33.33, 189.21 43.27, 189.71 59.57 M189.71 59.57 C188.74 74.11, 183.06 81.38, 169.86 79.43 M169.86 79.43 C110.83 78.62, 50.42 76.89, 19.86 79.43 M19.86 79.43 C4.91 80.68, 0.16 73.92, 0 59.57 M0 59.57 C1.04 44.65, 0.11 26.75, 0 19.86 M0 19.86 C-1.96 6.47, 7.06 1.3, 19.86 0" stroke="#495057" stroke-width="1.5" fill="none" stroke-dasharray="8 9"></path></g><g transform="translate(36.193516322544724 401.88087708609453) rotate(0 72.5 12.5)"><text x="72.5" y="17" font-family="Virgil, Segoe UI Emoji" font-size="20px" fill="#495057" text-anchor="middle" style="white-space: pre;" direction="ltr">victim 内存空洞</text></g><g transform="translate(27.72081066313251 53.19045829772955) rotate(0 94 12.5)"><text x="0" y="18" font-family="Virgil, Segoe UI Emoji" font-size="20px" fill="#495057" text-anchor="start" style="white-space: pre;" direction="ltr">free the first time</text></g><g stroke-linecap="round"><g transform="translate(238.77369399297766 147.4012344905309) rotate(0 48.85124661987652 1.0711471819668645)"><path d="M0.18 0.98 C16.09 1.47, 80.29 2.02, 96.51 2.01 M-1.19 0.45 C15.03 0.66, 82.53 -0.06, 98.89 0.19" stroke="#495057" stroke-width="4" fill="none"></path></g><g transform="translate(238.77369399297766 147.4012344905309) rotate(0 48.85124661987652 1.0711471819668645)"><path d="M72.33 9.38 C82.59 7.1, 91.56 2.02, 96.98 1.25 M70.39 11.4 C79.05 7.95, 87.41 5.1, 98.02 -0.13" stroke="#495057" stroke-width="4" fill="none"></path></g><g transform="translate(238.77369399297766 147.4012344905309) rotate(0 48.85124661987652 1.0711471819668645)"><path d="M72.34 -11.14 C82.44 -5.52, 91.4 -2.71, 96.98 1.25 M70.4 -9.12 C79.11 -6.18, 87.47 -2.64, 98.02 -0.13" stroke="#495057" stroke-width="4" fill="none"></path></g></g><mask></mask><g transform="translate(652.3195786249072 51.97270302545451) rotate(0 74 12.5)"><text x="0" y="18" font-family="Virgil, Segoe UI Emoji" font-size="20px" fill="#495057" text-anchor="start" style="white-space: pre;" direction="ltr">msg_msg spray</text></g><g stroke-linecap="round" transform="translate(758.348472595215 123.71417045593262) rotate(0 93.5 218)"><path d="M7.86 8.16 C7.86 8.16, 7.86 8.16, 7.86 8.16 M7.86 8.16 C7.86 8.16, 7.86 8.16, 7.86 8.16 M3.66 19.09 C6.15 13.59, 11.28 11.21, 18.1 2.48 M3.66 19.09 C8.47 14.35, 12.78 9.34, 18.1 2.48 M2.75 26.24 C9.5 21.37, 11.94 15.33, 24.4 1.33 M2.75 26.24 C9.11 18.7, 16.42 10.34, 24.4 1.33 M2.48 32.64 C10.24 21.77, 21.79 13.57, 30.7 0.18 M2.48 32.64 C9.67 23.66, 17.65 14.38, 30.7 0.18 M2.88 38.28 C12.76 28.99, 18.73 17.67, 34.37 2.05 M2.88 38.28 C9.64 29.63, 16.52 21.52, 34.37 2.05 M2.62 44.68 C12.01 32.65, 19.4 23.57, 39.36 2.41 M2.62 44.68 C15.83 29.28, 27.88 14.19, 39.36 2.41 M2.36 51.07 C16.31 37.85, 26.07 22.08, 45 2.02 M2.36 51.07 C14.5 37.81, 27.28 23.41, 45 2.02 M2.75 56.72 C21 36.17, 38.09 19.53, 49.99 2.38 M2.75 56.72 C20.61 36.33, 37.94 16.09, 49.99 2.38 M2.49 63.11 C19.05 44.44, 31.15 29.33, 55.63 1.98 M2.49 63.11 C11.86 50.07, 23.28 38.63, 55.63 1.98 M2.88 68.76 C19.89 45.36, 42.65 25.05, 60.62 2.34 M2.88 68.76 C18.07 51.46, 33.19 32.85, 60.62 2.34 M2.62 75.16 C21.9 54.64, 39.75 31.1, 66.26 1.95 M2.62 75.16 C22.66 52.54, 40.88 32.16, 66.26 1.95 M2.36 81.55 C27.35 50.37, 54.47 20.96, 71.25 2.31 M2.36 81.55 C19.58 61.19, 37.72 39.37, 71.25 2.31 M2.76 87.2 C31.03 56.72, 56.98 22.95, 76.89 1.91 M2.76 87.2 C29.95 55.32, 57.73 23.48, 76.89 1.91 M2.49 93.59 C21.41 73.06, 40.18 49.69, 81.88 2.27 M2.49 93.59 C23.28 69.43, 43.52 46.83, 81.88 2.27 M2.23 99.99 C23.88 72.37, 50.26 45.79, 86.86 2.63 M2.23 99.99 C37.49 60.56, 71.73 21.62, 86.86 2.63 M2.63 105.64 C23.62 80.72, 40.5 59.21, 92.51 2.24 M2.63 105.64 C22.9 80.63, 45 56.09, 92.51 2.24 M2.37 112.03 C29.69 84.44, 54.91 52.59, 97.49 2.6 M2.37 112.03 C24.89 83.65, 49.13 56.09, 97.49 2.6 M2.76 117.68 C40.88 73.43, 78.79 30.44, 103.14 2.21 M2.76 117.68 C32.21 85.96, 58.6 53.02, 103.14 2.21 M2.5 124.07 C34.89 87.2, 64.84 53.04, 108.12 2.57 M2.5 124.07 C39.63 79.65, 78.42 35.32, 108.12 2.57 M2.24 130.47 C28.44 100.62, 56.23 68.23, 113.77 2.17 M2.24 130.47 C38.47 91.78, 72.27 50.81, 113.77 2.17 M2.63 136.11 C43.17 87.53, 85.9 34.17, 118.76 2.53 M2.63 136.11 C34.78 96.99, 68.4 59.61, 118.76 2.53 M2.37 142.51 C50.89 86, 99.67 32.12, 124.4 2.14 M2.37 142.51 C49.7 87.34, 97.66 32.75, 124.4 2.14 M2.77 148.16 C35.53 110.65, 68.16 71.26, 129.39 2.5 M2.77 148.16 C41.71 102.65, 82.03 57.97, 129.39 2.5 M2.5 154.55 C35.92 115.61, 67.26 78.42, 135.03 2.1 M2.5 154.55 C31.31 121.91, 58.72 90.12, 135.03 2.1 M2.24 160.95 C52.22 103.51, 101.97 44.8, 140.02 2.46 M2.24 160.95 C33.95 123.97, 67.1 87.6, 140.02 2.46 M2.64 166.59 C39.15 123.97, 73.38 85.3, 145 2.82 M2.64 166.59 C56.69 102.72, 113.52 39.56, 145 2.82 M2.38 172.99 C30.6 137.49, 62.84 103.04, 150.65 2.43 M2.38 172.99 C37.79 130.9, 74.54 89.5, 150.65 2.43 M2.11 179.39 C49.7 127.8, 98.16 71.15, 155.63 2.79 M2.11 179.39 C63.29 110.16, 123.66 41.49, 155.63 2.79 M2.51 185.03 C62.81 112.99, 124.15 41.18, 162.59 0.88 M2.51 185.03 C65.84 112.92, 127.98 40.7, 162.59 0.88 M2.25 191.43 C61.82 124.93, 117.84 59.45, 166.92 2 M2.25 191.43 C35.88 151.42, 70.36 111.97, 166.92 2 M2.64 197.07 C39.49 155.07, 76.13 113.13, 170.59 3.87 M2.64 197.07 C56.16 134.12, 109.72 71.89, 170.59 3.87 M2.38 203.47 C68.67 127.49, 134.59 52.23, 174.27 5.74 M2.38 203.47 C45.79 154.46, 88.25 104.44, 174.27 5.74 M2.12 209.87 C48.01 153.34, 96.1 100.15, 177.94 7.61 M2.12 209.87 C67 134.65, 133.5 58.56, 177.94 7.61 M2.51 215.51 C38.82 174.43, 77.64 132.04, 180.96 10.23 M2.51 215.51 C51.59 157.23, 101.82 100.24, 180.96 10.23 M2.25 221.91 C45.43 168.91, 92.38 115.37, 183.32 13.61 M2.25 221.91 C46.88 171.77, 89.59 122.81, 183.32 13.61 M2.65 227.55 C58.19 162.57, 114.69 96.89, 185.69 16.99 M2.65 227.55 C55.61 168.28, 107.82 108.07, 185.69 16.99 M2.39 233.95 C59.02 163.55, 119.11 98, 188.05 20.37 M2.39 233.95 C61.36 165.9, 119.11 99.42, 188.05 20.37 M2.12 240.35 C72.73 159.33, 140.41 79, 188.44 26.01 M2.12 240.35 C74.11 158.21, 145.77 75.58, 188.44 26.01 M2.52 245.99 C67.94 169.21, 133.45 94.88, 188.18 32.41 M2.52 245.99 C73.25 165.84, 142.17 85.06, 188.18 32.41 M2.26 252.39 C72.84 168.57, 145.06 85.33, 187.92 38.81 M2.26 252.39 C65.5 180.82, 127.11 109.51, 187.92 38.81 M2.65 258.03 C57.09 195.81, 113.28 129.79, 187.66 45.2 M2.65 258.03 C53.45 195.84, 106.37 134.66, 187.66 45.2 M2.39 264.43 C59.69 197.4, 115.53 130.85, 188.06 50.85 M2.39 264.43 C41.2 219.7, 80.95 173.59, 188.06 50.85 M2.13 270.83 C45.4 221.35, 89.67 171.47, 187.79 57.25 M2.13 270.83 C53.14 212.44, 104.59 152.16, 187.79 57.25 M2.52 276.47 C37.87 232.81, 78 187.51, 188.19 62.89 M2.52 276.47 C65.99 202.76, 131.61 127.78, 188.19 62.89 M2.26 282.87 C52.92 227.19, 103.75 166.87, 187.93 69.29 M2.26 282.87 C54.63 223.99, 105.77 165.05, 187.93 69.29 M2 289.27 C61.67 221.62, 122.18 152.56, 187.67 75.68 M2 289.27 C75.66 205.6, 148.15 121.59, 187.67 75.68 M2.4 294.91 C53.84 236.41, 106 177.84, 188.06 81.33 M2.4 294.91 C75.12 213.01, 147.32 130.08, 188.06 81.33 M2.13 301.31 C42.76 255, 81.29 210.45, 187.8 87.73 M2.13 301.31 C46.22 251.78, 86.46 203.88, 187.8 87.73 M2.53 306.95 C69.39 229.85, 134.88 154.98, 188.19 93.37 M2.53 306.95 C75.15 221.24, 149.75 135.41, 188.19 93.37 M2.27 313.35 C40.13 268.92, 79.11 221.95, 187.93 99.77 M2.27 313.35 C52.77 256.31, 102.4 200.8, 187.93 99.77 M2.01 319.75 C65.48 244.7, 131.03 170.19, 187.67 106.16 M2.01 319.75 C54.41 258.05, 107.02 198.92, 187.67 106.16 M2.4 325.39 C68.35 250.86, 131.02 178.05, 188.06 111.81 M2.4 325.39 C69.96 247.59, 135.75 169.6, 188.06 111.81 M2.14 331.79 C70.05 256.09, 135.21 182.38, 187.8 118.2 M2.14 331.79 C58.83 268.25, 112.28 205.51, 187.8 118.2 M2.53 337.43 C46.51 284.92, 92.62 232.91, 188.2 123.85 M2.53 337.43 C59.27 274.19, 114.76 209.28, 188.2 123.85 M2.27 343.83 C75.26 260.61, 150.03 175.86, 187.94 130.25 M2.27 343.83 C52.78 286.55, 103.02 229.38, 187.94 130.25 M2.01 350.23 C39.33 305.78, 80.69 259.39, 187.68 136.64 M2.01 350.23 C57.82 285.98, 111.86 222.73, 187.68 136.64 M2.4 355.87 C65.77 282.35, 128.39 209.11, 188.07 142.29 M2.4 355.87 C63.34 285.9, 124.75 216.11, 188.07 142.29 M2.14 362.27 C71.4 285.16, 138.66 206.49, 187.81 148.68 M2.14 362.27 C59.2 297.79, 114.35 234.54, 187.81 148.68 M1.88 368.66 C42.52 322.28, 83.49 278.56, 188.2 154.33 M1.88 368.66 C71.44 289.23, 141.71 208.46, 188.2 154.33 M2.28 374.31 C54.48 309.04, 111.2 246.65, 187.94 160.72 M2.28 374.31 C55.72 311.21, 110.14 250.12, 187.94 160.72 M2.02 380.71 C51.39 323.18, 101.91 266.07, 187.68 167.12 M2.02 380.71 C74.17 298.51, 146.02 214.39, 187.68 167.12 M2.41 386.35 C75.26 300.34, 149.02 217.79, 188.07 172.77 M2.41 386.35 C73.47 304.7, 142.93 223.08, 188.07 172.77 M2.15 392.75 C61.01 327.27, 117.17 259.62, 187.81 179.16 M2.15 392.75 C66.26 317.19, 130.65 243.39, 187.81 179.16 M1.89 399.14 C66.07 325.7, 131.5 250.43, 187.55 185.56 M1.89 399.14 C63.24 329.79, 122.45 262.65, 187.55 185.56 M1.63 405.54 C71.23 329.08, 137.93 248.93, 187.95 191.2 M1.63 405.54 C56.6 341.59, 111.63 277.59, 187.95 191.2 M2.68 410.43 C42.63 362.68, 84.2 315.38, 187.68 197.6 M2.68 410.43 C74.05 328.17, 146.59 245.23, 187.68 197.6 M3.07 416.07 C45.26 367.82, 86.55 319.21, 188.08 203.25 M3.07 416.07 C53.04 358.53, 103.47 301.38, 188.08 203.25 M4.78 420.21 C78.46 336.22, 152.62 251.41, 187.82 209.64 M4.78 420.21 C58.81 358.31, 113.93 295.15, 187.82 209.64 M5.83 425.1 C64.99 357.76, 123.4 290.46, 187.56 216.04 M5.83 425.1 C74.17 345.81, 144.5 265.54, 187.56 216.04 M8.85 427.72 C48.75 381.51, 88.71 333.68, 187.95 221.68 M8.85 427.72 C62.41 365.14, 115.52 303.3, 187.95 221.68 M11.87 430.34 C49.87 387.06, 87.35 342.29, 187.69 228.08 M11.87 430.34 C72 360.74, 131.74 292.68, 187.69 228.08 M14.88 432.97 C78.83 360.69, 141.79 287.85, 188.08 233.72 M14.88 432.97 C61.05 381.41, 106.85 328.54, 188.08 233.72 M18.56 434.84 C73.21 373.91, 126.35 309.26, 187.82 240.12 M18.56 434.84 C73.97 372.2, 127.66 310.4, 187.82 240.12 M22.89 435.95 C64.21 391.68, 105 341.67, 187.56 246.52 M22.89 435.95 C57.83 395.23, 90.56 356.36, 187.56 246.52 M26.57 437.82 C89.17 366.84, 153.34 293.36, 187.96 252.16 M26.57 437.82 C72.68 383.7, 119.83 328.65, 187.96 252.16 M32.21 437.43 C66.18 398, 100.36 357.7, 187.69 258.56 M32.21 437.43 C91.44 372.58, 148.37 305.9, 187.69 258.56 M37.2 437.79 C68.73 400.9, 101.3 364.89, 188.09 264.2 M37.2 437.79 C81.6 386.51, 125.72 335.8, 188.09 264.2 M42.84 437.39 C74.03 403, 101.53 369.27, 187.83 270.6 M42.84 437.39 C91.19 383.08, 139.15 328.15, 187.83 270.6 M47.83 437.75 C95.79 382.71, 142.92 331.33, 187.57 277 M47.83 437.75 C99.07 378.13, 151.2 318.48, 187.57 277 M53.47 437.36 C82.92 401.36, 113.05 367.1, 187.96 282.64 M53.47 437.36 C92.36 389.61, 132.7 343.29, 187.96 282.64 M58.46 437.72 C99.72 388.47, 141.76 339.42, 187.7 289.04 M58.46 437.72 C87.42 404.43, 117.33 370.12, 187.7 289.04 M64.1 437.32 C101.09 396.55, 135.46 353.75, 188.09 294.68 M64.1 437.32 C91.27 404.89, 120.11 374.75, 188.09 294.68 M69.09 437.68 C103.67 393.89, 143.38 353.54, 187.83 301.08 M69.09 437.68 C111.05 389.9, 153.41 340.99, 187.83 301.08 M74.07 438.04 C110.77 396.7, 144.09 360.47, 187.57 307.48 M74.07 438.04 C103.65 402.98, 133.32 369.78, 187.57 307.48 M79.72 437.65 C110.57 408.68, 138.26 375.57, 187.97 313.12 M79.72 437.65 C117.82 394.3, 155.02 351.96, 187.97 313.12 M84.7 438.01 C124.4 391.86, 159.72 350.02, 187.7 319.52 M84.7 438.01 C118.85 397.96, 155.47 357.31, 187.7 319.52 M90.35 437.61 C116.28 405.91, 140.23 377.6, 188.1 325.16 M90.35 437.61 C124.49 398.99, 159.74 357.13, 188.1 325.16 M95.33 437.98 C119.92 410.43, 147.05 377.96, 187.84 331.56 M95.33 437.98 C132.38 395.86, 169.27 353.8, 187.84 331.56 M100.98 437.58 C124.64 410.4, 147.69 381.66, 187.58 337.96 M100.98 437.58 C119.86 415.01, 141.06 391.63, 187.58 337.96 M105.96 437.94 C138.24 399.3, 170.17 361.28, 187.97 343.6 M105.96 437.94 C132 410.67, 155.14 382.6, 187.97 343.6 M111.61 437.55 C141.58 401.31, 173.73 369.47, 187.71 350 M111.61 437.55 C141.72 403.22, 171.55 368.53, 187.71 350 M116.59 437.91 C130.41 422.57, 145.37 404.29, 188.1 355.64 M116.59 437.91 C142.49 408.67, 167.29 379.21, 188.1 355.64 M122.24 437.51 C147.11 412.79, 168.72 386.71, 187.84 362.04 M122.24 437.51 C145.77 409.01, 169.37 383.66, 187.84 362.04 M127.22 437.87 C150.32 409.67, 173.39 384.79, 187.58 368.44 M127.22 437.87 C139.35 424.48, 153.43 408.73, 187.58 368.44 M132.21 438.23 C143.85 426.45, 155.1 412.5, 187.98 374.08 M132.21 438.23 C144.74 424.32, 157.25 409.84, 187.98 374.08 M137.85 437.84 C152.32 423.32, 165.23 406.09, 187.71 380.48 M137.85 437.84 C154.07 419.76, 171.29 400.59, 187.71 380.48 M142.84 438.2 C154.02 424.78, 169.2 407.42, 188.11 386.12 M142.84 438.2 C159.52 419.43, 174.93 402.12, 188.11 386.12 M148.48 437.8 C156.6 428.07, 166.44 414.74, 187.85 392.52 M148.48 437.8 C161.86 423.58, 174.13 410.08, 187.85 392.52 M155.44 435.9 C162.94 427.12, 173.32 415.5, 187.59 398.92 M155.44 435.9 C166.49 425.05, 175.81 412.53, 187.59 398.92 M161.08 435.5 C168.49 425.91, 178.71 415.33, 187.98 404.56 M161.08 435.5 C165.91 428.87, 172.57 422.62, 187.98 404.56 M167.38 434.35 C175.17 424.14, 182.46 418.04, 187.06 411.71 M167.38 434.35 C173.54 426.67, 181.82 419.29, 187.06 411.71 M171.06 436.22 C174.55 433.83, 178.86 426.46, 183.52 421.88 M171.06 436.22 C175.95 430.53, 180.22 424.62, 183.52 421.88" stroke="#868e96" stroke-width="0.5" fill="none"></path><path d="M32 0 M32 0 C78.25 2.17, 123.34 -0.09, 155 0 M32 0 C67.03 0.57, 99.72 -0.06, 155 0 M155 0 C178.01 0.71, 187.34 9.41, 187 32 M155 0 C175.44 -2.12, 184.74 9.73, 187 32 M187 32 C188.98 150.32, 188.59 270.44, 187 404 M187 32 C188.87 122.03, 188.79 211.03, 187 404 M187 404 C187.74 426.18, 177.77 434.65, 155 436 M187 404 C187.94 427.02, 175.19 435.61, 155 436 M155 436 C121.92 438.66, 88.61 437.15, 32 436 M155 436 C123.42 435.66, 91.05 436.72, 32 436 M32 436 C12.12 434.75, 0.18 427.05, 0 404 M32 436 C10.05 434.61, -0.44 424.96, 0 404 M0 404 C0.26 260.1, 1.39 116.94, 0 32 M0 404 C2.49 266.84, 1.82 130.25, 0 32 M0 32 C-1.02 8.83, 11.32 -0.9, 32 0 M0 32 C0.05 10.39, 10.09 0.42, 32 0" stroke="#495057" stroke-width="1" fill="none"></path></g><g transform="translate(796.348472595215 329.2141704559326) rotate(0 55.5 12.5)"><text x="55.5" y="17" font-family="Virgil, Segoe UI Emoji" font-size="20px" fill="#495057" text-anchor="middle" style="white-space: pre;" direction="ltr">kmalloc-xxx</text></g><g stroke-linecap="round" transform="translate(399.18214271182103 10) rotate(0 93.5 273.5)"><path d="M7.86 8.16 C7.86 8.16, 7.86 8.16, 7.86 8.16 M7.86 8.16 C7.86 8.16, 7.86 8.16, 7.86 8.16 M3.66 19.09 C8.27 15.03, 12.34 6.9, 18.1 2.48 M3.66 19.09 C8.82 13.31, 13.37 7.6, 18.1 2.48 M2.75 26.24 C9.95 18, 16.4 13.47, 24.4 1.33 M2.75 26.24 C9.72 19.41, 15.87 10.88, 24.4 1.33 M1.83 33.39 C12.97 22.01, 25.62 9.27, 30.7 0.18 M1.83 33.39 C7.44 26.73, 15.37 18.93, 30.7 0.18 M1.57 39.79 C12.17 29.09, 21.25 15.17, 34.37 2.05 M1.57 39.79 C9.38 31.16, 17.31 22.23, 34.37 2.05 M1.96 45.43 C13.34 30.48, 29.4 13.06, 39.36 2.41 M1.96 45.43 C12.54 31.88, 25.07 19.85, 39.36 2.41 M1.7 51.83 C16.39 36.54, 30.11 19.93, 45 2.02 M1.7 51.83 C14.78 38.43, 25.74 24.69, 45 2.02 M1.44 58.23 C13.37 42.59, 23.81 29.33, 49.99 2.38 M1.44 58.23 C13.55 43.98, 26.11 29.71, 49.99 2.38 M1.83 63.87 C14.05 50.25, 26.18 36.04, 55.63 1.98 M1.83 63.87 C19.83 41.79, 38.55 20.78, 55.63 1.98 M1.57 70.27 C26.45 42.87, 48.39 19.59, 60.62 2.34 M1.57 70.27 C22.24 44.53, 44.5 19.38, 60.62 2.34 M1.97 75.91 C19.93 55.32, 33.73 38.66, 66.26 1.95 M1.97 75.91 C22.8 52.85, 42.77 29.67, 66.26 1.95 M1.71 82.31 C16.57 66.56, 31.39 48.4, 71.25 2.31 M1.71 82.31 C16.72 65.29, 31.62 48.46, 71.25 2.31 M1.44 88.71 C20.83 67.33, 40.29 44.92, 76.89 1.91 M1.44 88.71 C26.28 58.81, 52.85 29, 76.89 1.91 M1.84 94.35 C27.76 63.37, 54.74 35.4, 81.88 2.27 M1.84 94.35 C30.34 60.9, 58.73 29.53, 81.88 2.27 M1.58 100.75 C19.17 79.87, 38.8 59.43, 86.86 2.63 M1.58 100.75 C24 72.67, 48.37 46.83, 86.86 2.63 M1.97 106.39 C25.48 82.7, 50.38 53.65, 92.51 2.24 M1.97 106.39 C24.51 80.37, 46.01 56.24, 92.51 2.24 M1.71 112.79 C36.17 74.38, 68.95 35.25, 97.49 2.6 M1.71 112.79 C24.78 86.89, 48.67 59.16, 97.49 2.6 M1.45 119.19 C23.63 90.32, 49.77 65.96, 103.14 2.21 M1.45 119.19 C35.12 81.77, 67.2 44.58, 103.14 2.21 M1.84 124.83 C30.53 90.9, 58.83 58.46, 108.12 2.57 M1.84 124.83 C32.88 89.18, 65.74 52.34, 108.12 2.57 M1.58 131.23 C31.51 95.12, 61.74 62.53, 113.77 2.17 M1.58 131.23 C38.6 87.34, 77.22 43.16, 113.77 2.17 M1.98 136.87 C37.97 93.4, 73.39 51.35, 118.76 2.53 M1.98 136.87 C40.88 94.1, 79.5 48.39, 118.76 2.53 M1.72 143.27 C34.49 109.37, 62.79 71.41, 124.4 2.14 M1.72 143.27 C28.3 112.98, 54.49 81.76, 124.4 2.14 M1.45 149.67 C30.26 117.79, 58.27 85.83, 129.39 2.5 M1.45 149.67 C51.2 93.29, 101.29 36.66, 129.39 2.5 M1.85 155.31 C38.85 114.06, 75.15 69.83, 135.03 2.1 M1.85 155.31 C53.71 96.38, 103.71 36.64, 135.03 2.1 M1.59 161.71 C50.65 104.41, 98.93 50.34, 140.02 2.46 M1.59 161.71 C47 106.96, 95.65 51.7, 140.02 2.46 M1.98 167.35 C43.26 119.09, 84.51 70, 145 2.82 M1.98 167.35 C37.39 124.4, 76.09 83.43, 145 2.82 M1.72 173.75 C59.06 104.09, 118.37 36.33, 150.65 2.43 M1.72 173.75 C35.79 134.09, 70.44 93.74, 150.65 2.43 M1.46 180.14 C39.97 135.58, 75.96 93.05, 155.63 2.79 M1.46 180.14 C54.31 119.76, 107.25 57.58, 155.63 2.79 M1.85 185.79 C46.34 134.14, 88.7 86.58, 162.59 0.88 M1.85 185.79 C53.07 128.83, 102.32 72.41, 162.59 0.88 M1.59 192.19 C63.01 122.25, 123.38 53.61, 166.92 2 M1.59 192.19 C57.57 128.11, 113.78 62.78, 166.92 2 M1.99 197.83 C41.61 153.64, 79.57 108.57, 170.59 3.87 M1.99 197.83 C68.64 120.47, 134.76 43.71, 170.59 3.87 M1.72 204.23 C45.2 153.73, 90.72 105.82, 174.27 5.74 M1.72 204.23 C42.57 153.98, 84.82 104.92, 174.27 5.74 M1.46 210.62 C66.46 133.8, 132.74 57.96, 177.94 7.61 M1.46 210.62 C59.87 144.15, 117.83 78.24, 177.94 7.61 M1.86 216.27 C36.71 174.18, 73.39 132.89, 180.96 10.23 M1.86 216.27 C43.31 166.76, 86.92 118.63, 180.96 10.23 M1.6 222.66 C56.41 158.39, 112.72 91.01, 183.32 13.61 M1.6 222.66 C58.27 154.9, 115.27 88.82, 183.32 13.61 M1.99 228.31 C55.02 167.36, 107.61 108.12, 185.69 16.99 M1.99 228.31 C75.04 145.74, 147.59 63.46, 185.69 16.99 M1.73 234.71 C56.96 173.46, 112.35 109.99, 188.05 20.37 M1.73 234.71 C72.81 152.69, 144.64 71.37, 188.05 20.37 M1.47 241.1 C53.01 182.45, 104.06 124.17, 188.44 26.01 M1.47 241.1 C72.58 158.18, 144.2 75.82, 188.44 26.01 M1.86 246.75 C61.02 178.72, 121.73 109.6, 188.18 32.41 M1.86 246.75 C59.11 181.57, 116.05 115.23, 188.18 32.41 M1.6 253.14 C57.94 188.83, 113.9 126.8, 187.92 38.81 M1.6 253.14 C70.02 174.04, 139.38 94.01, 187.92 38.81 M2 258.79 C76.29 175.33, 151.34 91.54, 187.66 45.2 M2 258.79 C60.45 191.98, 119.25 123.65, 187.66 45.2 M1.73 265.19 C73.37 186.06, 140.18 107.08, 188.06 50.85 M1.73 265.19 C58.87 197.21, 116.45 130.63, 188.06 50.85 M1.47 271.58 C51.11 210.72, 102.88 151.58, 187.79 57.25 M1.47 271.58 C68.85 192.83, 136.08 116.24, 187.79 57.25 M1.87 277.23 C62.64 208.61, 119.7 141.53, 188.19 62.89 M1.87 277.23 C47.68 224.2, 92.13 173.86, 188.19 62.89 M1.61 283.62 C68.84 207.2, 136.29 131.82, 187.93 69.29 M1.61 283.62 C50.68 227.54, 97.76 172.09, 187.93 69.29 M2 289.27 C42.52 246.75, 81.01 201.06, 187.67 75.68 M2 289.27 C39.55 247.46, 77.42 203.68, 187.67 75.68 M1.74 295.66 C66.01 224.57, 129.98 149.91, 188.06 81.33 M1.74 295.66 C63.92 223.12, 127.11 150.78, 188.06 81.33 M1.48 302.06 C61.09 230.83, 122.38 162.15, 187.8 87.73 M1.48 302.06 C63.73 233.24, 123.79 162.99, 187.8 87.73 M1.87 307.71 C73.88 225.64, 147.37 142.33, 188.19 93.37 M1.87 307.71 C41.43 264.32, 80.02 219.03, 188.19 93.37 M1.61 314.1 C41.6 266.16, 83.56 218.01, 187.93 99.77 M1.61 314.1 C64.2 242.62, 126.38 172.15, 187.93 99.77 M2.01 319.75 C71 238.95, 140.76 159.03, 187.67 106.16 M2.01 319.75 C72.04 237.08, 141.74 157.11, 187.67 106.16 M1.74 326.14 C45.62 273.86, 89.77 223.66, 188.06 111.81 M1.74 326.14 C45.57 275.16, 89.43 224.1, 188.06 111.81 M1.48 332.54 C43.62 284.7, 84.11 238.72, 187.8 118.2 M1.48 332.54 C46.52 280.99, 90.46 231.13, 187.8 118.2 M1.88 338.19 C74.26 255.88, 147.3 173.23, 188.2 123.85 M1.88 338.19 C46.35 285.5, 92.48 233.79, 188.2 123.85 M1.62 344.58 C71.62 264.98, 140.52 185.74, 187.94 130.25 M1.62 344.58 C54.18 281.77, 109.27 219.78, 187.94 130.25 M2.01 350.23 C51.08 294.47, 101.67 236.06, 187.68 136.64 M2.01 350.23 C51.65 295.61, 99.2 240.95, 187.68 136.64 M1.75 356.62 C61.28 289.36, 121.01 220.32, 188.07 142.29 M1.75 356.62 C59.52 292.82, 114.35 229.54, 188.07 142.29 M1.49 363.02 C71.65 282.07, 142.44 200.93, 187.81 148.68 M1.49 363.02 C68.93 284.62, 136.29 206.95, 187.81 148.68 M1.88 368.66 C53.35 312.02, 102.08 255.85, 188.2 154.33 M1.88 368.66 C70.31 291.33, 138.94 213.46, 188.2 154.33 M1.62 375.06 C71.45 295.94, 143.48 214, 187.94 160.72 M1.62 375.06 C66.39 301.65, 129.39 227.62, 187.94 160.72 M2.02 380.71 C51.6 325.41, 101.77 270.19, 187.68 167.12 M2.02 380.71 C44.48 332.25, 87.05 284.12, 187.68 167.12 M1.75 387.1 C44.18 341.93, 84.95 293.89, 188.07 172.77 M1.75 387.1 C70.12 307.49, 138.44 229.05, 188.07 172.77 M1.49 393.5 C54.4 332.88, 109.5 270.95, 187.81 179.16 M1.49 393.5 C70.3 316.5, 137.63 239.21, 187.81 179.16 M1.89 399.14 C46.89 348.49, 91.25 296.37, 187.55 185.56 M1.89 399.14 C61.9 331.04, 120.95 263.14, 187.55 185.56 M1.63 405.54 C68.25 325.83, 134.77 250.27, 187.95 191.2 M1.63 405.54 C59.76 338.58, 116.66 272.13, 187.95 191.2 M2.02 411.18 C50.79 356.48, 96.68 302.22, 187.68 197.6 M2.02 411.18 C49.16 357.64, 94.69 305.72, 187.68 197.6 M1.76 417.58 C42.64 368.29, 81.69 322.56, 188.08 203.25 M1.76 417.58 C63.26 348.83, 123.98 278.78, 188.08 203.25 M1.5 423.98 C51.5 365.25, 97.51 311.08, 187.82 209.64 M1.5 423.98 C56.5 359.43, 113.81 294.66, 187.82 209.64 M1.89 429.62 C46.58 378.83, 92.25 323.78, 187.56 216.04 M1.89 429.62 C61.12 360.82, 121.94 289.75, 187.56 216.04 M1.63 436.02 C65.81 362.49, 130.07 286.77, 187.95 221.68 M1.63 436.02 C46.32 385.44, 90.72 335.74, 187.95 221.68 M2.02 441.66 C69.09 366.07, 133.47 291.01, 187.69 228.08 M2.02 441.66 C70.53 362.84, 138.01 285.62, 187.69 228.08 M1.76 448.06 C69.24 368.54, 138.03 289.2, 188.08 233.72 M1.76 448.06 C54.66 391.55, 104.76 332.89, 188.08 233.72 M1.5 454.46 C52.59 395.37, 107.45 331.9, 187.82 240.12 M1.5 454.46 C63.07 384, 125.47 311.68, 187.82 240.12 M1.9 460.1 C53.74 399.87, 103.43 341.12, 187.56 246.52 M1.9 460.1 C47.56 407.92, 93.14 355.56, 187.56 246.52 M1.64 466.5 C59.64 400.59, 117.53 332.83, 187.96 252.16 M1.64 466.5 C51.22 409.81, 100.99 352.41, 187.96 252.16 M2.03 472.14 C40.64 426.41, 79.21 381.13, 187.69 258.56 M2.03 472.14 C53.53 412.52, 105.53 352.13, 187.69 258.56 M1.77 478.54 C68.23 404.04, 133.8 327.45, 188.09 264.2 M1.77 478.54 C47.15 423.79, 93.68 371.63, 188.09 264.2 M1.51 484.94 C72.33 406.66, 139.74 327.66, 187.83 270.6 M1.51 484.94 C55.63 422.92, 109.78 360.32, 187.83 270.6 M1.9 490.58 C44.85 438.39, 90.56 386, 187.57 277 M1.9 490.58 C57.21 427.9, 112.26 364.88, 187.57 277 M1.64 496.98 C69.53 420.11, 135.64 342.62, 187.96 282.64 M1.64 496.98 C52.07 439, 102.28 381.33, 187.96 282.64 M2.03 502.62 C50.58 448.33, 98.54 393.67, 187.7 289.04 M2.03 502.62 C53.55 442.45, 105.05 382.6, 187.7 289.04 M1.77 509.02 C51.82 452.18, 101.34 395.3, 188.09 294.68 M1.77 509.02 C43.65 462.49, 83.74 416.56, 188.09 294.68 M0.86 516.17 C39.87 470.53, 81.53 424.09, 187.83 301.08 M0.86 516.17 C75.72 430.69, 149.49 345.43, 187.83 301.08 M1.91 521.06 C63.77 451.2, 124.65 381.35, 187.57 307.48 M1.91 521.06 C45.2 473.13, 88.39 423.37, 187.57 307.48 M2.3 526.71 C68.19 452.34, 129.37 378.53, 187.97 313.12 M2.3 526.71 C55.71 463.99, 111.1 400.81, 187.97 313.12 M4.01 530.84 C63.64 461.75, 120.63 396.71, 187.7 319.52 M4.01 530.84 C75.29 448.7, 145.92 367.31, 187.7 319.52 M5.71 534.97 C45.8 487.15, 85.78 441.89, 188.1 325.16 M5.71 534.97 C72.05 457.21, 139.75 379.31, 188.1 325.16 M8.08 538.35 C69.28 468.59, 132.78 394.84, 187.84 331.56 M8.08 538.35 C54.12 484.81, 100.14 431.69, 187.84 331.56 M11.1 540.98 C57 486.78, 102.07 433.41, 187.58 337.96 M11.1 540.98 C55.07 489.7, 97.96 439.26, 187.58 337.96 M14.11 543.6 C55.43 497.4, 96.03 453.51, 187.97 343.6 M14.11 543.6 C51.61 502.74, 87.44 460.66, 187.97 343.6 M17.79 545.47 C83.16 469.47, 149 390.83, 187.71 350 M17.79 545.47 C69.9 486.18, 122.75 424.38, 187.71 350 M22.12 546.58 C83.91 480.06, 141.36 410.28, 188.1 355.64 M22.12 546.58 C73.53 490.23, 123.5 431.84, 188.1 355.64 M26.45 547.7 C89.85 476.4, 155.26 402.56, 187.84 362.04 M26.45 547.7 C85.18 479.86, 144.54 410.71, 187.84 362.04 M31.44 548.06 C62.76 510.04, 96.51 472.48, 187.58 368.44 M31.44 548.06 C93.01 479.35, 153.79 410.26, 187.58 368.44 M37.08 547.66 C92.38 484.13, 149.24 420.56, 187.98 374.08 M37.08 547.66 C93.63 483.29, 151.27 416.08, 187.98 374.08 M42.07 548.02 C75.27 507.27, 113.11 465.15, 187.71 380.48 M42.07 548.02 C70.69 514.06, 99.19 479.66, 187.71 380.48 M47.06 548.38 C81.28 508.53, 115.46 468.53, 188.11 386.12 M47.06 548.38 C97.66 491.5, 147.41 434.3, 188.11 386.12 M52.7 547.99 C78.32 516.72, 107.46 484.15, 187.85 392.52 M52.7 547.99 C90.36 503.57, 128.09 460.46, 187.85 392.52 M57.69 548.35 C99.02 502, 139.43 454.58, 187.59 398.92 M57.69 548.35 C85.92 516.31, 116.09 483.38, 187.59 398.92 M63.33 547.96 C89.65 518.2, 115.98 489.11, 187.98 404.56 M63.33 547.96 C95.95 511.59, 129.67 473.79, 187.98 404.56 M68.32 548.32 C99.85 513.18, 130.94 475.73, 187.72 410.96 M68.32 548.32 C113.69 496.96, 157.03 445.84, 187.72 410.96 M73.96 547.92 C102.16 513.13, 132.52 477.76, 188.11 416.6 M73.96 547.92 C114.08 502.65, 152.36 459.04, 188.11 416.6 M78.95 548.28 C117.75 508.32, 153.45 465.48, 187.85 423 M78.95 548.28 C117.42 505.94, 154.18 463.17, 187.85 423 M84.59 547.89 C123.81 505.79, 161.22 460.02, 187.59 429.4 M84.59 547.89 C109.88 519.2, 136.48 488.01, 187.59 429.4 M89.58 548.25 C110.57 526.77, 129.91 504.85, 187.98 435.04 M89.58 548.25 C117.6 516.09, 146.28 481.93, 187.98 435.04 M94.56 548.61 C134.02 506.61, 168.9 462.03, 187.72 441.44 M94.56 548.61 C122.33 516.9, 147.73 485.84, 187.72 441.44 M100.21 548.21 C123.19 521.74, 145.56 497.6, 188.12 447.08 M100.21 548.21 C128.91 515.08, 157.57 480.04, 188.12 447.08 M105.19 548.57 C136.87 508.78, 171.05 473.85, 187.86 453.48 M105.19 548.57 C125.74 525.46, 146.92 502.31, 187.86 453.48 M110.84 548.18 C136.71 518.9, 161.89 489.15, 187.6 459.88 M110.84 548.18 C126.59 528.27, 143.81 509.06, 187.6 459.88 M115.82 548.54 C137.77 521.98, 159.66 496.36, 187.99 465.52 M115.82 548.54 C137.92 523.99, 159.44 497.91, 187.99 465.52 M121.47 548.14 C136.54 530.97, 148.87 515.28, 187.73 471.92 M121.47 548.14 C138.46 529.06, 153.84 510.98, 187.73 471.92 M126.45 548.5 C142.9 532.58, 158.08 510.44, 188.12 477.56 M126.45 548.5 C149.33 523.08, 171.8 498.19, 188.12 477.56 M132.1 548.11 C148.72 531.08, 162.63 511.99, 187.86 483.96 M132.1 548.11 C152.53 525, 173.16 500.49, 187.86 483.96 M137.08 548.47 C148.3 533.16, 161.29 519.16, 187.6 490.36 M137.08 548.47 C151.08 532.71, 165.13 515.43, 187.6 490.36 M142.73 548.07 C156 532.54, 170.15 520.35, 187.99 496 M142.73 548.07 C153.67 535.46, 164.72 522.77, 187.99 496 M147.71 548.43 C156.15 535.58, 167 524.32, 187.73 502.4 M147.71 548.43 C155.53 539.33, 165.14 528.39, 187.73 502.4 M152.7 548.79 C165.67 533.05, 178.47 518.29, 188.13 508.04 M152.7 548.79 C159.84 539.69, 167.99 532.17, 188.13 508.04 M157.69 549.15 C168.35 535.51, 180.13 523.62, 187.21 515.19 M157.69 549.15 C167.19 537.82, 177.35 525.78, 187.21 515.19 M163.33 548.76 C168 540.71, 175.13 535.62, 186.95 521.59 M163.33 548.76 C170.38 540.64, 178.71 530.83, 186.95 521.59 M170.94 546.1 C173.23 540.71, 178.23 538.35, 189.31 524.97 M170.94 546.1 C175.33 539.68, 181.33 534.06, 189.31 524.97" stroke="#4c6ef5" stroke-width="0.5" fill="none"></path><path d="M32 0 M32 0 C64.58 0.18, 101.56 -1.1, 155 0 M32 0 C68.52 -0.76, 103.69 -1.11, 155 0 M155 0 C177.3 -1.04, 186.53 10.51, 187 32 M155 0 C175.24 0.3, 184.95 11.02, 187 32 M187 32 C186.06 189.01, 185.36 347, 187 515 M187 32 C187.98 196.71, 188.27 361.92, 187 515 M187 515 C188.37 534.5, 176.52 548.39, 155 547 M187 515 C187.66 536.7, 176.04 547.62, 155 547 M155 547 C122.82 549.58, 91.04 549.38, 32 547 M155 547 C120.47 548.07, 86.27 547.6, 32 547 M32 547 C11.69 547.08, 0.97 537.3, 0 515 M32 547 C11.48 545.65, 1.31 534.61, 0 515 M0 515 C-1.31 343.14, -0.62 173.15, 0 32 M0 515 C2.11 360.81, 1.77 206.32, 0 32 M0 32 C0.99 9.89, 10.43 -1.44, 32 0 M0 32 C1.34 9.67, 11.83 1, 32 0" stroke="#495057" stroke-width="1" fill="none"></path></g><g transform="translate(417.18214271182103 271) rotate(0 75.5 12.5)"><text x="75.5" y="17" font-family="Virgil, Segoe UI Emoji" font-size="20px" fill="#495057" text-anchor="middle" style="white-space: pre;" direction="ltr">first msg_msgs</text></g><g stroke-linecap="round" transform="translate(399.18221900576634 301.1428966522217) rotate(0 91.78565979003906 44.64284896850586)"><path d="M23.94 -0.56 L163.03 1.15 L173.87 2 L182.33 7.81 L182.36 15.91 L183.44 65.19 L180.39 79.9 L173.17 84.84 L160.49 87.38 L23.02 90.52 L9.35 86.58 L4.46 81.85 L-0.03 73.55 L-0.31 15.99 L4.65 8.23 L9.46 3.97 L21.81 -0.78" stroke="none" stroke-width="0" fill="#40c057"></path><path d="M22.32 0 M22.32 0 C67.07 -0.46, 112.77 -0.83, 161.25 0 M22.32 0 C70.04 -0.36, 116.41 -1.51, 161.25 0 M161.25 0 C174.15 1.66, 183.06 8.1, 183.57 22.32 M161.25 0 C176.6 -0.33, 181.7 5.79, 183.57 22.32 M183.57 22.32 C181.83 33.23, 181.84 42.65, 183.57 66.96 M183.57 22.32 C183.58 35.04, 184.17 47.62, 183.57 66.96 M183.57 66.96 C184.89 83.18, 176.54 90.98, 161.25 89.29 M183.57 66.96 C182.38 82.6, 177.9 87.62, 161.25 89.29 M161.25 89.29 C109.29 88.31, 53 88.28, 22.32 89.29 M161.25 89.29 C123.6 89.71, 84.69 89.6, 22.32 89.29 M22.32 89.29 C8.96 88.5, -1.82 80.39, 0 66.96 M22.32 89.29 C7.31 90.79, -0.03 81.39, 0 66.96 M0 66.96 C0.01 51.99, -0.06 39.37, 0 22.32 M0 66.96 C1.26 58.17, 0.45 49.62, 0 22.32 M0 22.32 C-0.64 7.62, 7.91 -1.55, 22.32 0 M0 22.32 C-0.32 7.82, 6.32 -1.32, 22.32 0" stroke="#495057" stroke-width="1" fill="none"></path></g><g transform="translate(420.9678787958054 339.53574562072754) rotate(0 70 12.5)"><text x="70" y="17" font-family="Virgil, Segoe UI Emoji" font-size="20px" fill="#495057" text-anchor="middle" style="white-space: pre;" direction="ltr">first msg_msg</text></g><g stroke-linecap="round" transform="translate(757.8439372834706 386.28571074349554) rotate(0 94.857177734375 39.714263916015625)"><path d="M21.34 -1.25 L168.07 -1.46 L177.65 0.29 L184.98 4.84 L187.68 16.1 L188.92 60.18 L189.45 68.69 L180.16 75.67 L170.72 80.08 L18.82 80.77 L12.42 79.58 L4.84 74 L1.42 65.57 L2.29 16.67 L3.84 7.78 L6.74 3.63 L21.21 -0.19" stroke="none" stroke-width="0" fill="#40c057"></path><path d="M19.86 0 M19.86 0 C59.06 -0.21, 98.34 -1.51, 169.86 0 M169.86 0 C181.48 0.21, 187.91 6.72, 189.71 19.86 M189.71 19.86 C189.69 28.94, 190.77 35.96, 189.71 59.57 M189.71 59.57 C187.79 74.07, 182.81 78.04, 169.86 79.43 M169.86 79.43 C129.38 80.21, 93.39 79.08, 19.86 79.43 M19.86 79.43 C6.3 80.45, 0.55 74.54, 0 59.57 M0 59.57 C-0.1 51.78, 0.44 42.17, 0 19.86 M0 19.86 C-1.63 8.49, 5.18 0.48, 19.86 0" stroke="#495057" stroke-width="1.5" fill="none" stroke-dasharray="8 9"></path></g><g transform="translate(765.2011150178456 400.99997465951117) rotate(0 87.5 25)"><text x="87.5" y="17" font-family="Virgil, Segoe UI Emoji" font-size="20px" fill="#495057" text-anchor="middle" style="white-space: pre;" direction="ltr">占位成功的 second</text><text x="87.5" y="42" font-family="Virgil, Segoe UI Emoji" font-size="20px" fill="#495057" text-anchor="middle" style="white-space: pre;" direction="ltr">msg_msg</text></g><g mask="url(#mask-XnIFp5GimFh-OOeGUwaKR)" stroke-linecap="round"><g transform="translate(583.8066070193337 345.21656629423546) rotate(0 85.88271021266428 41.32974724314661)"><path d="M-1.19 0.09 C27.57 13.8, 143.89 68.64, 172.96 82.29 M0.38 -0.91 C28.96 12.96, 143.36 69.6, 172.08 83.57" stroke="#495057" stroke-width="1" fill="none"></path></g><g transform="translate(583.8066070193337 345.21656629423546) rotate(0 85.88271021266428 41.32974724314661)"><path d="M142.4 80.57 C151.37 82.41, 160.84 82.56, 172.33 85.05 M142.93 81.19 C150.61 81.4, 159.85 83.19, 172.89 82.92" stroke="#495057" stroke-width="1" fill="none"></path></g><g transform="translate(583.8066070193337 345.21656629423546) rotate(0 85.88271021266428 41.32974724314661)"><path d="M151.45 62.16 C157.41 70.04, 163.86 76.33, 172.33 85.05 M151.98 62.77 C157.15 68.06, 163.88 74.99, 172.89 82.92" stroke="#495057" stroke-width="1" fill="none"></path></g></g><mask id="mask-XnIFp5GimFh-OOeGUwaKR"><rect x="0" y="0" fill="#fff" width="856.629664648147" height="528.0025498302465"></rect><rect x="614.7181358337402" y="374.10955806224104" fill="#000" width="111" height="25" opacity="1"></rect></mask><g transform="translate(614.7181358337402 374.10955806224104) rotate(0 54.97118139825761 12.436755475141041)"><text x="55.5" y="17" font-family="Virgil, Segoe UI Emoji" font-size="20px" fill="#495057" text-anchor="middle" style="white-space: pre;" direction="ltr">m_list.next</text></g><g transform="translate(425.3885249788799 710.6026852168733) rotate(0 56 12.5)"><text x="0" y="18" font-family="Virgil, Segoe UI Emoji" font-size="20px" fill="#495057" text-anchor="start" style="white-space: pre;" direction="ltr">double free</text></g><g stroke-linecap="round" transform="translate(529.5128168984062 786.8679767033409) rotate(0 96.5 210.50000000000006)"><path d="M7.86 8.16 C7.86 8.16, 7.86 8.16, 7.86 8.16 M7.86 8.16 C7.86 8.16, 7.86 8.16, 7.86 8.16 M3.66 19.09 C5.91 13.5, 10.29 11.16, 18.1 2.48 M3.66 19.09 C9.14 13.77, 14.39 6.09, 18.1 2.48 M2.75 26.24 C7.64 21.89, 12.57 15.2, 24.4 1.33 M2.75 26.24 C7.01 20.62, 12.16 14.34, 24.4 1.33 M2.48 32.64 C9.83 26.47, 16.09 20.14, 30.7 0.18 M2.48 32.64 C11.67 20.75, 22.69 9.77, 30.7 0.18 M2.88 38.28 C14.35 25.54, 23.33 12.72, 34.37 2.05 M2.88 38.28 C15.16 24.06, 27.92 9.47, 34.37 2.05 M2.62 44.68 C15.9 32.55, 25.53 17.78, 39.36 2.41 M2.62 44.68 C10.99 36.09, 18.6 27.92, 39.36 2.41 M2.36 51.07 C13.53 40.45, 24.16 28.95, 45 2.02 M2.36 51.07 C18.45 32.84, 36.19 12.69, 45 2.02 M2.75 56.72 C12.23 45.13, 21.85 32.88, 49.99 2.38 M2.75 56.72 C14.32 44.46, 23.03 33.16, 49.99 2.38 M2.49 63.11 C17.69 44.39, 37.36 22.8, 55.63 1.98 M2.49 63.11 C16.15 46.16, 30.92 28.3, 55.63 1.98 M2.88 68.76 C13.7 52.7, 27.56 37.96, 60.62 2.34 M2.88 68.76 C23.02 47.61, 40.71 25.02, 60.62 2.34 M2.62 75.16 C23.53 53.64, 40.97 32.58, 66.26 1.95 M2.62 75.16 C26.96 47.57, 50.5 20.94, 66.26 1.95 M2.36 81.55 C24.23 54.8, 46.49 33.6, 71.25 2.31 M2.36 81.55 C22.84 56.93, 43.19 32.52, 71.25 2.31 M2.76 87.2 C30.66 58.22, 54.43 28, 76.89 1.91 M2.76 87.2 C29.21 57.86, 54.77 28.08, 76.89 1.91 M2.49 93.59 C20.41 73.89, 41.38 47.89, 81.88 2.27 M2.49 93.59 C30.74 60.75, 60.48 26.19, 81.88 2.27 M2.23 99.99 C29.69 66.75, 58.97 33.96, 87.52 1.88 M2.23 99.99 C25.91 72.51, 51 43.62, 87.52 1.88 M2.63 105.64 C27.09 79.6, 49.97 52.27, 92.51 2.24 M2.63 105.64 C35.69 68.53, 68.28 31.91, 92.51 2.24 M2.37 112.03 C21.84 88.78, 44.33 65.63, 97.49 2.6 M2.37 112.03 C24.47 86.91, 46.36 60.18, 97.49 2.6 M2.76 117.68 C40.99 70.77, 83.05 24.01, 103.14 2.21 M2.76 117.68 C22.7 93.56, 43.96 69.37, 103.14 2.21 M2.5 124.07 C41.72 77.29, 84.47 31.89, 108.12 2.57 M2.5 124.07 C31.39 90.3, 61.97 54.23, 108.12 2.57 M2.24 130.47 C39.08 86.64, 78.73 42.76, 113.77 2.17 M2.24 130.47 C28.61 100.35, 54.76 71.44, 113.77 2.17 M2.63 136.11 C47.53 87.56, 89.3 36.28, 118.76 2.53 M2.63 136.11 C32.96 100.82, 61.17 66.84, 118.76 2.53 M2.37 142.51 C48.44 85.59, 96.08 31.82, 124.4 2.14 M2.37 142.51 C32.26 107.11, 62.71 71.14, 124.4 2.14 M2.77 148.16 C52.14 90.73, 101.27 35.2, 129.39 2.5 M2.77 148.16 C32.32 116.25, 63.23 82.04, 129.39 2.5 M2.5 154.55 C46.1 105.33, 89.54 56.58, 135.03 2.1 M2.5 154.55 C37 117.47, 71.6 78.92, 135.03 2.1 M2.24 160.95 C43.74 115.52, 81.97 67.68, 140.02 2.46 M2.24 160.95 C33.15 128.14, 60.77 93.89, 140.02 2.46 M2.64 166.59 C44.91 120.64, 83.76 71.51, 145 2.82 M2.64 166.59 C51.08 112.18, 99.16 55.93, 145 2.82 M2.38 172.99 C34.36 133.2, 70.44 94.84, 150.65 2.43 M2.38 172.99 C38.37 128.72, 74.91 85.79, 150.65 2.43 M2.11 179.39 C54.27 120.38, 104.51 62.94, 155.63 2.79 M2.11 179.39 C32.89 142.59, 63.98 106.69, 155.63 2.79 M2.51 185.03 C47.65 134.01, 89.05 83.1, 161.28 2.39 M2.51 185.03 C58.97 120.95, 114.49 56.64, 161.28 2.39 M2.25 191.43 C46.4 139.08, 88.63 88.69, 166.26 2.75 M2.25 191.43 C37.97 149.18, 74.99 107.69, 166.26 2.75 M2.64 197.07 C56.91 134.04, 115.3 67.81, 171.25 3.11 M2.64 197.07 C60.23 129.97, 118.69 62.73, 171.25 3.11 M2.38 203.47 C34.5 163.13, 70.81 122.52, 176.24 3.47 M2.38 203.47 C65.77 129.79, 128.58 57.74, 176.24 3.47 M2.12 209.87 C42.41 162.26, 82.17 117.39, 179.91 5.34 M2.12 209.87 C40.03 165.01, 78.25 120.93, 179.91 5.34 M2.51 215.51 C43.13 169.72, 85.5 123.77, 183.59 7.21 M2.51 215.51 C54.07 155.95, 107.1 95.38, 183.59 7.21 M2.25 221.91 C42.28 177.06, 82.03 127.38, 186.61 9.84 M2.25 221.91 C72.68 138.72, 144.43 56.77, 186.61 9.84 M2.65 227.55 C59.3 161.02, 114.61 98.32, 188.97 13.22 M2.65 227.55 C51.69 168.96, 101.05 113.12, 188.97 13.22 M2.39 233.95 C63.33 163.7, 123.95 93.68, 191.33 16.59 M2.39 233.95 C42.53 186.31, 85.23 137.1, 191.33 16.59 M2.12 240.35 C75.88 155.06, 148.58 68.85, 193.69 19.97 M2.12 240.35 C46.31 188.77, 90.4 137.9, 193.69 19.97 M2.52 245.99 C71.27 168.18, 140.25 89.12, 194.09 25.62 M2.52 245.99 C64.58 172.87, 128.06 100.2, 194.09 25.62 M2.26 252.39 C62.11 183.03, 122.4 112.82, 193.17 32.77 M2.26 252.39 C65.63 176.78, 130.22 103.94, 193.17 32.77 M2 258.79 C57.89 194.45, 113.81 128.72, 193.57 38.41 M2 258.79 C52.14 203.93, 101.78 146.91, 193.57 38.41 M2.39 264.43 C60.57 193.63, 120.18 125.74, 193.3 44.81 M2.39 264.43 C43.81 218.51, 83.21 173.55, 193.3 44.81 M2.13 270.83 C65.04 199.07, 127.7 125.94, 193.7 50.45 M2.13 270.83 C77.7 181.55, 154.94 94.37, 193.7 50.45 M2.52 276.47 C55.57 218.19, 105.57 157.42, 193.44 56.85 M2.52 276.47 C53.19 218.19, 103.74 159.27, 193.44 56.85 M2.26 282.87 C74.55 197.17, 150.41 112.25, 193.18 63.25 M2.26 282.87 C56.19 220.66, 110.08 158.43, 193.18 63.25 M2 289.27 C54.33 229.92, 107.22 167.17, 193.57 68.89 M2 289.27 C49.55 236.83, 95.95 182.89, 193.57 68.89 M2.4 294.91 C47.58 244.23, 93.38 191.54, 193.31 75.29 M2.4 294.91 C58.12 231.4, 112.82 167.25, 193.31 75.29 M2.13 301.31 C60.03 237.12, 118.55 171.93, 193.7 80.93 M2.13 301.31 C47.8 250.39, 92.61 198.92, 193.7 80.93 M2.53 306.95 C72.76 223.14, 141.48 143.19, 193.44 87.33 M2.53 306.95 C67.48 234.73, 130.58 160.29, 193.44 87.33 M2.27 313.35 C58.24 252.94, 110.19 190.26, 193.18 93.73 M2.27 313.35 C48.44 258.32, 95.99 204.53, 193.18 93.73 M2.01 319.75 C64.88 249.14, 125.27 178.12, 193.57 99.37 M2.01 319.75 C73.97 236.28, 147.72 152.15, 193.57 99.37 M2.4 325.39 C50.04 267.53, 100.24 210.18, 193.31 105.77 M2.4 325.39 C53.63 266.59, 105.42 206.71, 193.31 105.77 M2.14 331.79 C67.34 256.72, 131.97 180.49, 193.71 111.41 M2.14 331.79 C66.97 256.44, 130.06 183.18, 193.71 111.41 M2.53 337.43 C51.72 280.4, 100.92 226.82, 193.45 117.81 M2.53 337.43 C40.97 293.13, 78.74 248.95, 193.45 117.81 M2.27 343.83 C65.25 270.8, 127.51 198.39, 193.18 124.21 M2.27 343.83 C64.22 272.25, 125.79 199.87, 193.18 124.21 M2.01 350.23 C70.7 272.7, 138.56 194.52, 193.58 129.85 M2.01 350.23 C61.51 283.06, 120.63 215.76, 193.58 129.85 M2.4 355.87 C62.06 285.25, 122.76 215.36, 193.32 136.25 M2.4 355.87 C51.57 300.78, 101.9 243.84, 193.32 136.25 M2.14 362.27 C46.68 309.16, 95.07 254.96, 193.71 141.89 M2.14 362.27 C73.84 283.62, 142.39 203.35, 193.71 141.89 M1.88 368.66 C70.26 287.24, 141.22 209.78, 193.45 148.29 M1.88 368.66 C49.2 314.16, 97.64 258, 193.45 148.29 M2.28 374.31 C58.41 307.95, 114.32 245.68, 193.19 154.69 M2.28 374.31 C65.62 301.78, 128.47 230.01, 193.19 154.69 M2.02 380.71 C49.62 323.03, 96.85 268.72, 193.58 160.33 M2.02 380.71 C73.3 296.95, 145.64 213.97, 193.58 160.33 M-0.21 389.37 C43.97 335.5, 92.05 283.5, 193.32 166.73 M-0.21 389.37 C49 331.75, 100.37 272.4, 193.32 166.73 M0.84 394.26 C42.24 348.59, 82.48 300.79, 193.72 172.37 M0.84 394.26 C70.3 316.52, 137.8 238.39, 193.72 172.37 M1.23 399.9 C63.65 329.03, 121.69 261.19, 193.46 178.77 M1.23 399.9 C43.06 352.36, 84.38 305.12, 193.46 178.77 M2.94 404.03 C41.18 360.6, 83.87 312.24, 193.19 185.17 M2.94 404.03 C46.49 354.51, 90.21 304.26, 193.19 185.17 M4.64 408.17 C66.64 336.3, 129.18 265.01, 193.59 190.81 M4.64 408.17 C61.96 341.3, 121.8 272.67, 193.59 190.81 M7.66 410.79 C51.85 360.9, 92.6 313.93, 193.33 197.21 M7.66 410.79 C63.95 345.36, 121.47 280.39, 193.33 197.21 M10.03 414.17 C80.64 334.53, 152.65 250.97, 193.72 202.85 M10.03 414.17 C63.3 353.09, 118.31 290.24, 193.72 202.85 M13.04 416.79 C84.56 333.63, 153.59 252.92, 193.46 209.25 M13.04 416.79 C53.71 369.2, 93.75 323.92, 193.46 209.25 M17.38 417.91 C77.56 346.57, 140.47 276, 193.2 215.65 M17.38 417.91 C85.6 340.73, 154.2 262.43, 193.2 215.65 M21.05 419.78 C67.01 367.19, 112.27 316.12, 193.59 221.29 M21.05 419.78 C65.77 368.8, 111.27 316.71, 193.59 221.29 M25.38 420.89 C91.17 344.82, 159.31 266.74, 193.33 227.69 M25.38 420.89 C59.18 381.2, 93.87 341.59, 193.33 227.69 M30.37 421.25 C80.03 359.61, 132.9 302.89, 193.73 233.33 M30.37 421.25 C72.06 373.66, 113.96 326.03, 193.73 233.33 M36.01 420.86 C76.49 375.14, 114.91 328.87, 193.47 239.73 M36.01 420.86 C74.16 374.23, 114.58 329.99, 193.47 239.73 M41 421.22 C83.27 368.4, 129.73 317.84, 193.2 246.13 M41 421.22 C78.88 375.99, 116.91 333.15, 193.2 246.13 M46.64 420.82 C100.01 358.52, 154.61 296.59, 193.6 251.77 M46.64 420.82 C80.49 383.52, 113.74 345.91, 193.6 251.77 M51.63 421.18 C86.03 384.1, 116.8 345.69, 193.34 258.17 M51.63 421.18 C90.2 375.07, 128.95 331.7, 193.34 258.17 M56.62 421.54 C102.12 371.82, 143.55 322.08, 193.73 263.81 M56.62 421.54 C101.04 370.25, 147 319.68, 193.73 263.81 M62.26 421.15 C90.9 386.85, 124.18 352.44, 193.47 270.21 M62.26 421.15 C110.85 365.59, 158.76 309.31, 193.47 270.21 M67.25 421.51 C95.19 387.94, 119.59 358.28, 193.21 276.61 M67.25 421.51 C108.7 373.45, 152.68 325.99, 193.21 276.61 M72.89 421.11 C112.33 380.4, 147.78 336.31, 193.6 282.25 M72.89 421.11 C111.94 376.47, 153.12 329.94, 193.6 282.25 M77.88 421.47 C114.05 374.35, 153.67 329.46, 193.34 288.65 M77.88 421.47 C113.84 378.79, 152.96 335.45, 193.34 288.65 M83.52 421.08 C120.08 378.51, 152.91 342.01, 193.74 294.29 M83.52 421.08 C126.32 372.53, 167.84 322.86, 193.74 294.29 M88.51 421.44 C113.15 394.64, 140.35 364.17, 193.48 300.69 M88.51 421.44 C126.83 376.59, 167.27 331.86, 193.48 300.69 M94.15 421.05 C117.23 395.08, 140.09 367.56, 193.21 307.08 M94.15 421.05 C126.23 384.1, 159.64 347.01, 193.21 307.08 M99.14 421.41 C123.44 393.11, 148.7 367.97, 193.61 312.73 M99.14 421.41 C120.38 396.64, 142.98 369.4, 193.61 312.73 M104.12 421.77 C129.84 389.33, 155.46 357.96, 193.35 319.13 M104.12 421.77 C136.74 383.15, 169.33 346.38, 193.35 319.13 M109.77 421.37 C124.98 400.48, 144.21 382.19, 193.74 324.77 M109.77 421.37 C131.17 396.18, 154.65 371.41, 193.74 324.77 M114.75 421.73 C133.77 398.46, 152.99 377.13, 193.48 331.17 M114.75 421.73 C136.77 397.54, 158.49 372.95, 193.48 331.17 M120.4 421.34 C143.03 396.7, 165.9 371.7, 193.22 337.56 M120.4 421.34 C143.13 395.83, 165.29 369.4, 193.22 337.56 M125.38 421.7 C145.42 399.96, 160.86 377.68, 193.61 343.21 M125.38 421.7 C140 404.33, 155.96 385.15, 193.61 343.21 M131.03 421.3 C146.03 404.55, 160.44 385.93, 193.35 349.61 M131.03 421.3 C156.6 393.05, 180.93 366.11, 193.35 349.61 M136.01 421.66 C151.5 401.71, 167.12 384.38, 193.75 355.25 M136.01 421.66 C147.36 408.88, 159.73 393.48, 193.75 355.25 M141.66 421.27 C154.81 406.41, 170.75 387.5, 193.49 361.65 M141.66 421.27 C155.57 404.89, 168.7 389.24, 193.49 361.65 M146.64 421.63 C157.29 410.15, 168.32 394.04, 193.22 368.04 M146.64 421.63 C164.73 401.17, 181.65 382.05, 193.22 368.04 M152.29 421.23 C168.02 401.43, 182.23 386.85, 193.62 373.69 M152.29 421.23 C163.33 410.04, 172.51 399.19, 193.62 373.69 M157.27 421.59 C164.26 411.01, 173.63 401.11, 193.36 380.08 M157.27 421.59 C167.37 409.8, 177.19 398.07, 193.36 380.08 M162.26 421.95 C171.02 414.64, 179.39 404.59, 193.75 385.73 M162.26 421.95 C172.2 409.73, 182 397.59, 193.75 385.73 M168.56 420.8 C177.96 411.32, 186.29 399.86, 194.8 390.62 M168.56 420.8 C175.67 411.9, 183.51 404.56, 194.8 390.62 M175.51 418.9 C182.22 411.44, 188.26 401.69, 193.88 397.77 M175.51 418.9 C180.99 412.4, 188.47 405.14, 193.88 397.77" stroke="#868e96" stroke-width="0.5" fill="none"></path><path d="M32 0 M32 0 C63.71 -0.53, 98.45 -0.2, 161 0 M32 0 C69.56 -1.92, 107.36 -1.72, 161 0 M161 0 C182.43 -0.78, 192.09 10.59, 193 32 M161 0 C181.18 -1.01, 193.28 12.4, 193 32 M193 32 C192.71 146.78, 194.67 260.66, 193 389 M193 32 C195.84 124.87, 195.66 218.84, 193 389 M193 389 C194.25 409.33, 183.8 419.46, 161 421 M193 389 C191.79 410.67, 183.24 421.62, 161 421 M161 421 C131.75 419.96, 99.91 418.81, 32 421 M161 421 C118.44 420.99, 74.14 420.97, 32 421 M32 421 C9.63 419.54, 1.37 410.16, 0 389 M32 421 C11.1 422.22, -1.28 409.67, 0 389 M0 389 C-1.57 316.56, -1.29 243.32, 0 32 M0 389 C-0.04 274.09, -0.25 158.1, 0 32 M0 32 C-1.15 10.46, 10.99 -1.72, 32 0 M0 32 C-0.28 12.89, 9.58 1, 32 0" stroke="#495057" stroke-width="1" fill="none"></path></g><g transform="translate(570.5128168984064 984.8679767033406) rotate(0 55.5 12.5)"><text x="55.5" y="17" font-family="Virgil, Segoe UI Emoji" font-size="20px" fill="#495057" text-anchor="middle" style="white-space: pre;" direction="ltr">kmalloc-xxx</text></g><g stroke-linecap="round" transform="translate(172.25108906579442 668.6299821914188) rotate(0 93.5 273.49999999999994)"><path d="M7.86 8.16 C7.86 8.16, 7.86 8.16, 7.86 8.16 M7.86 8.16 C7.86 8.16, 7.86 8.16, 7.86 8.16 M3.66 19.09 C8.13 15.82, 9.6 12.28, 18.1 2.48 M3.66 19.09 C8.23 14.02, 13.98 7.08, 18.1 2.48 M2.75 26.24 C9.19 18.6, 17.15 7.08, 24.4 1.33 M2.75 26.24 C8.1 20.35, 16 13.07, 24.4 1.33 M1.83 33.39 C12.88 22.66, 20.93 8.51, 30.7 0.18 M1.83 33.39 C8.28 25.49, 13.65 19.25, 30.7 0.18 M1.57 39.79 C13.42 29.02, 19.12 17.47, 34.37 2.05 M1.57 39.79 C11.04 28.44, 21.07 19.09, 34.37 2.05 M1.96 45.43 C13.28 29.26, 27.09 16.1, 39.36 2.41 M1.96 45.43 C12.81 31.91, 26.03 19.01, 39.36 2.41 M1.7 51.83 C19.19 31.81, 34.03 12.82, 45 2.02 M1.7 51.83 C17.92 31.88, 35.22 11.85, 45 2.02 M1.44 58.23 C12.72 42.73, 27.66 31.02, 49.99 2.38 M1.44 58.23 C16.06 43.03, 28.71 25.26, 49.99 2.38 M1.83 63.87 C20.32 42.65, 40.59 18.46, 55.63 1.98 M1.83 63.87 C18.39 45.61, 36.92 24.8, 55.63 1.98 M1.57 70.27 C16.32 53.78, 28.72 39.54, 60.62 2.34 M1.57 70.27 C24.01 44.68, 44.94 20.64, 60.62 2.34 M1.97 75.91 C23.87 53.29, 42.12 30.85, 66.26 1.95 M1.97 75.91 C18.85 56.21, 36.7 36.37, 66.26 1.95 M1.71 82.31 C15.86 64.91, 32.53 47.3, 71.25 2.31 M1.71 82.31 C22.36 60.22, 40.48 38.16, 71.25 2.31 M1.44 88.71 C30.35 55.16, 58.35 26.32, 76.89 1.91 M1.44 88.71 C25.98 60.28, 51.27 29.44, 76.89 1.91 M1.84 94.35 C34.7 59.21, 65.4 21.12, 81.88 2.27 M1.84 94.35 C28.74 64.85, 56.05 32.38, 81.88 2.27 M1.58 100.75 C30.26 66.76, 60.82 33.26, 86.86 2.63 M1.58 100.75 C30.3 67.72, 61.09 33.15, 86.86 2.63 M1.97 106.39 C38.43 63.12, 73.97 24.13, 92.51 2.24 M1.97 106.39 C31.44 69.29, 63.61 33.69, 92.51 2.24 M1.71 112.79 C30.74 75.83, 63.86 40.62, 97.49 2.6 M1.71 112.79 C38.52 72.75, 73.36 31.9, 97.49 2.6 M1.45 119.19 C26.88 89.7, 56.15 56.25, 103.14 2.21 M1.45 119.19 C31.47 86.05, 60.8 51.61, 103.14 2.21 M1.84 124.83 C33.91 86.73, 68.82 46.65, 108.12 2.57 M1.84 124.83 C42.55 78.14, 83.58 30.17, 108.12 2.57 M1.58 131.23 C33.63 92.8, 67.79 54.52, 113.77 2.17 M1.58 131.23 C32.49 95.66, 60.96 61.21, 113.77 2.17 M1.98 136.87 C45.06 87.56, 89.68 39.24, 118.76 2.53 M1.98 136.87 C35.34 101.84, 65.82 64.79, 118.76 2.53 M1.72 143.27 C28.12 112.84, 57.92 80.98, 124.4 2.14 M1.72 143.27 C47.29 91.54, 91.52 40.95, 124.4 2.14 M1.45 149.67 C31.29 112.2, 63.05 76.05, 129.39 2.5 M1.45 149.67 C50.49 91.15, 101.18 34.12, 129.39 2.5 M1.85 155.31 C48.95 97.12, 96.46 42.75, 135.03 2.1 M1.85 155.31 C46.44 101.32, 93.3 49.37, 135.03 2.1 M1.59 161.71 C49.83 103.78, 101.68 49.67, 140.02 2.46 M1.59 161.71 C56.88 99.57, 110.83 37.31, 140.02 2.46 M1.98 167.35 C51.58 113.45, 97.63 57.98, 145 2.82 M1.98 167.35 C56.62 104.42, 111.62 40.37, 145 2.82 M1.72 173.75 C36.73 132.88, 75.62 89.11, 150.65 2.43 M1.72 173.75 C40.31 131.97, 77.88 90.14, 150.65 2.43 M1.46 180.14 C50.7 120.46, 105.06 60.32, 155.63 2.79 M1.46 180.14 C52.6 121.06, 103.56 63.05, 155.63 2.79 M1.85 185.79 C48.99 134.2, 94.12 83.98, 162.59 0.88 M1.85 185.79 C60.1 116.25, 120.85 47.77, 162.59 0.88 M1.59 192.19 C40.57 148.22, 80.89 102.38, 166.92 2 M1.59 192.19 C41.18 147.47, 80.26 101.14, 166.92 2 M1.99 197.83 C63.44 128.63, 124.68 57.39, 170.59 3.87 M1.99 197.83 C54.52 136.03, 109.79 71.97, 170.59 3.87 M1.72 204.23 C53.5 145.15, 104.68 86.95, 174.27 5.74 M1.72 204.23 C45.24 155.03, 89.76 105.15, 174.27 5.74 M1.46 210.62 C41.51 162.32, 85.64 112.71, 177.94 7.61 M1.46 210.62 C55.4 148.03, 108.64 86.83, 177.94 7.61 M1.86 216.27 C46.28 164.01, 91.33 109.57, 180.96 10.23 M1.86 216.27 C56.17 154.21, 110.53 91.19, 180.96 10.23 M1.6 222.66 C72.47 146.93, 139.55 67.62, 183.32 13.61 M1.6 222.66 C47.24 169.82, 93.87 117.34, 183.32 13.61 M1.99 228.31 C45.78 176.09, 92.36 124.05, 185.69 16.99 M1.99 228.31 C43.23 181.92, 83.24 135.4, 185.69 16.99 M1.73 234.71 C50.27 178.17, 101.34 117.35, 188.05 20.37 M1.73 234.71 C69.96 158.32, 136.05 81.01, 188.05 20.37 M1.47 241.1 C50.53 186.31, 100.52 129.36, 188.44 26.01 M1.47 241.1 C43.75 193.67, 84.27 146.22, 188.44 26.01 M1.86 246.75 C71.47 167.32, 140.22 86.49, 188.18 32.41 M1.86 246.75 C68.7 170.73, 133.74 95, 188.18 32.41 M1.6 253.14 C60.39 187.16, 118.61 119.49, 187.92 38.81 M1.6 253.14 C42.22 206.98, 82.23 160.58, 187.92 38.81 M2 258.79 C63.33 187.4, 124.41 117.13, 187.66 45.2 M2 258.79 C74.72 173.28, 148.88 87.95, 187.66 45.2 M1.73 265.19 C48.1 210.12, 96.8 158.91, 188.06 50.85 M1.73 265.19 C58.41 198.94, 115.92 133.03, 188.06 50.85 M1.47 271.58 C70.33 192.62, 138.52 112.48, 187.79 57.25 M1.47 271.58 C38.38 227.3, 76.75 183.76, 187.79 57.25 M1.87 277.23 C66.76 205, 130.31 130.85, 188.19 62.89 M1.87 277.23 C58.94 214.16, 113.62 150.3, 188.19 62.89 M1.61 283.62 C57.89 217.01, 116.11 150.19, 187.93 69.29 M1.61 283.62 C64.99 211.63, 127.13 139.4, 187.93 69.29 M2 289.27 C61.59 219.61, 123.03 151.03, 187.67 75.68 M2 289.27 C67.83 211.9, 135.1 134.72, 187.67 75.68 M1.74 295.66 C62.06 226.86, 121.95 157.96, 188.06 81.33 M1.74 295.66 C55.52 235.71, 107.46 175.99, 188.06 81.33 M1.48 302.06 C59.54 231.03, 121.32 162.38, 187.8 87.73 M1.48 302.06 C74.11 218.02, 146.89 134.44, 187.8 87.73 M1.87 307.71 C42.42 263.06, 79.52 219.33, 188.19 93.37 M1.87 307.71 C74.09 225.4, 144.66 145.13, 188.19 93.37 M1.61 314.1 C64.06 242.35, 128.74 168.81, 187.93 99.77 M1.61 314.1 C47.48 260.41, 94.4 207.87, 187.93 99.77 M2.01 319.75 C58.41 257.53, 111.99 191.07, 187.67 106.16 M2.01 319.75 C60.53 252.15, 119.69 184.12, 187.67 106.16 M1.74 326.14 C68.58 249.46, 134.22 172.04, 188.06 111.81 M1.74 326.14 C60.66 259.69, 118.38 193.88, 188.06 111.81 M1.48 332.54 C71.29 254.09, 140.26 177.01, 187.8 118.2 M1.48 332.54 C39.81 289.17, 78.47 245.78, 187.8 118.2 M1.88 338.19 C46.1 283.69, 94.05 230.72, 188.2 123.85 M1.88 338.19 C62.9 270.31, 122.19 202.16, 188.2 123.85 M1.62 344.58 C58.67 281.33, 113.67 216.55, 187.94 130.25 M1.62 344.58 C62.61 276.38, 120.52 208.8, 187.94 130.25 M2.01 350.23 C50.92 293.87, 99.53 238.46, 187.68 136.64 M2.01 350.23 C62.21 279.43, 123.37 208.57, 187.68 136.64 M1.75 356.62 C44.67 306.36, 88.26 254.28, 188.07 142.29 M1.75 356.62 C67.54 279.58, 134.39 201.34, 188.07 142.29 M1.49 363.02 C66.61 287.38, 128.77 216.84, 187.81 148.68 M1.49 363.02 C74.03 279.89, 145.9 197.22, 187.81 148.68 M1.88 368.66 C45.2 315.96, 90.74 262.3, 188.2 154.33 M1.88 368.66 C73.51 286.81, 144.46 205.59, 188.2 154.33 M1.62 375.06 C41.07 330.79, 77.38 287.56, 187.94 160.72 M1.62 375.06 C42.35 329.41, 83.25 283.43, 187.94 160.72 M2.02 380.71 C42.47 337.4, 80.58 291.41, 187.68 167.12 M2.02 380.71 C51.55 323.14, 101.9 264.56, 187.68 167.12 M1.75 387.1 C45.59 336.37, 90.01 282.27, 188.07 172.77 M1.75 387.1 C66.1 314.02, 130.43 240.42, 188.07 172.77 M1.49 393.5 C72.04 311.68, 140 233.45, 187.81 179.16 M1.49 393.5 C51.08 337.23, 100.27 281.71, 187.81 179.16 M1.89 399.14 C47.41 344.44, 95.72 292.58, 187.55 185.56 M1.89 399.14 C73.5 315.08, 146.3 230.73, 187.55 185.56 M1.63 405.54 C71.88 322.76, 144.83 238.91, 187.95 191.2 M1.63 405.54 C45.5 356.41, 89.07 305.3, 187.95 191.2 M2.02 411.18 C54.59 351.48, 106.13 289.14, 187.68 197.6 M2.02 411.18 C68.8 333.24, 137.7 256.16, 187.68 197.6 M1.76 417.58 C50.88 360.76, 99.07 303.83, 188.08 203.25 M1.76 417.58 C39.98 373.33, 77.86 328.63, 188.08 203.25 M1.5 423.98 C75.61 339.81, 148.9 252.92, 187.82 209.64 M1.5 423.98 C70.19 344.61, 138.59 266.12, 187.82 209.64 M1.89 429.62 C40.43 384.89, 82.19 340, 187.56 216.04 M1.89 429.62 C45.65 378.39, 89.34 326.89, 187.56 216.04 M1.63 436.02 C64.92 363.56, 123.58 292.3, 187.95 221.68 M1.63 436.02 C56.34 372.07, 111.49 309.82, 187.95 221.68 M2.02 441.66 C38.94 399.18, 76.89 353.93, 187.69 228.08 M2.02 441.66 C63.29 371.09, 123.59 301.24, 187.69 228.08 M1.76 448.06 C72.58 364.24, 147.49 279.74, 188.08 233.72 M1.76 448.06 C63.17 378.52, 124.87 307.31, 188.08 233.72 M1.5 454.46 C44.79 400.7, 90.68 349.93, 187.82 240.12 M1.5 454.46 C59.83 387.13, 120.01 318.74, 187.82 240.12 M1.9 460.1 C71.93 378.89, 143.88 296.82, 187.56 246.52 M1.9 460.1 C46.96 406.47, 93.82 352.64, 187.56 246.52 M1.64 466.5 C42.84 418.74, 87.25 369.3, 187.96 252.16 M1.64 466.5 C39.55 421.71, 77.75 378.16, 187.96 252.16 M2.03 472.14 C50.07 414.89, 100.58 357.7, 187.69 258.56 M2.03 472.14 C62.19 400.58, 123.41 331.79, 187.69 258.56 M1.77 478.54 C67.18 404.57, 133.21 330.29, 188.09 264.2 M1.77 478.54 C40.55 432.46, 79.84 388.34, 188.09 264.2 M1.51 484.94 C65.17 411.89, 126.16 339.12, 187.83 270.6 M1.51 484.94 C41.73 436.8, 83.31 388.28, 187.83 270.6 M1.9 490.58 C52.91 431.79, 103.48 373.24, 187.57 277 M1.9 490.58 C57.95 426.49, 115.9 360.72, 187.57 277 M1.64 496.98 C44.02 449.89, 83.5 402, 187.96 282.64 M1.64 496.98 C55 431.71, 109.26 369.65, 187.96 282.64 M2.03 502.62 C67.64 428.33, 130.76 352.77, 187.7 289.04 M2.03 502.62 C58.88 438, 116.91 370.34, 187.7 289.04 M1.77 509.02 C49.4 458.12, 93.82 402.75, 188.09 294.68 M1.77 509.02 C54.31 446.8, 108.44 386.03, 188.09 294.68 M0.86 516.17 C43.93 469.03, 83.02 421.84, 187.83 301.08 M0.86 516.17 C71.69 434.29, 141.33 354.08, 187.83 301.08 M1.91 521.06 C64.18 451.06, 124.09 378.2, 187.57 307.48 M1.91 521.06 C44.7 469.81, 89.93 418.08, 187.57 307.48 M2.3 526.71 C74.57 444.67, 142.91 362.66, 187.97 313.12 M2.3 526.71 C57.35 462.09, 113.11 399.57, 187.97 313.12 M4.01 530.84 C52.67 471.21, 104.87 411.33, 187.7 319.52 M4.01 530.84 C75.55 451.24, 146.73 368.85, 187.7 319.52 M5.71 534.97 C54.13 483.85, 98.39 430.5, 188.1 325.16 M5.71 534.97 C44.93 489.5, 85.16 443.54, 188.1 325.16 M8.08 538.35 C51.9 486.16, 96.22 433.55, 187.84 331.56 M8.08 538.35 C50.87 487.45, 95.7 436.09, 187.84 331.56 M11.1 540.98 C63.77 478.85, 116.04 420.62, 187.58 337.96 M11.1 540.98 C65.91 476.73, 121.17 413.17, 187.58 337.96 M14.11 543.6 C67.87 480.44, 123.65 418.58, 187.97 343.6 M14.11 543.6 C71.27 477.38, 130.05 410.05, 187.97 343.6 M17.79 545.47 C68.53 489.31, 118.43 429.27, 187.71 350 M17.79 545.47 C72.35 484.37, 127.58 421.69, 187.71 350 M22.12 546.58 C75.36 487.3, 125.16 429.03, 188.1 355.64 M22.12 546.58 C65.53 494.74, 110.34 442.58, 188.1 355.64 M26.45 547.7 C71.5 494.39, 118.63 441.88, 187.84 362.04 M26.45 547.7 C90.21 475.23, 154.57 401.35, 187.84 362.04 M31.44 548.06 C88.8 481.07, 147.68 414.12, 187.58 368.44 M31.44 548.06 C68.95 506.72, 106.89 463.26, 187.58 368.44 M37.08 547.66 C99.26 480.06, 157.67 411.21, 187.98 374.08 M37.08 547.66 C75.14 502.51, 113.24 459.56, 187.98 374.08 M42.07 548.02 C71.76 512.15, 103.61 480.02, 187.71 380.48 M42.07 548.02 C90.21 490.42, 140.25 433.3, 187.71 380.48 M47.06 548.38 C80.92 508.78, 114.43 470.14, 188.11 386.12 M47.06 548.38 C80.69 511.53, 113.83 472.49, 188.11 386.12 M52.7 547.99 C106.53 486.57, 158.94 422.96, 187.85 392.52 M52.7 547.99 C88.35 508.64, 121.34 470, 187.85 392.52 M57.69 548.35 C100.92 499.2, 144.68 448.88, 187.59 398.92 M57.69 548.35 C90.05 510.66, 122.02 473.35, 187.59 398.92 M63.33 547.96 C105.68 501.08, 144.5 453.12, 187.98 404.56 M63.33 547.96 C107.52 495.88, 152.29 443.01, 187.98 404.56 M68.32 548.32 C93.63 520.01, 121.72 487.29, 187.72 410.96 M68.32 548.32 C95.67 518.81, 121.14 489.29, 187.72 410.96 M73.96 547.92 C104.56 515.41, 132.09 483.19, 188.11 416.6 M73.96 547.92 C99.68 516.19, 127.78 485.57, 188.11 416.6 M78.95 548.28 C122.63 499.65, 164.62 450.68, 187.85 423 M78.95 548.28 C104.27 520.47, 127.53 492.97, 187.85 423 M84.59 547.89 C105.35 522.4, 126.89 499.22, 187.59 429.4 M84.59 547.89 C116.79 509.61, 149.6 470.94, 187.59 429.4 M89.58 548.25 C127 505.23, 161.62 462.72, 187.98 435.04 M89.58 548.25 C127.76 504.97, 165.4 461.21, 187.98 435.04 M94.56 548.61 C125.87 514.39, 153.48 478.45, 187.72 441.44 M94.56 548.61 C121.27 519.31, 147.92 487.72, 187.72 441.44 M100.21 548.21 C133.89 509.52, 170.64 466.39, 188.12 447.08 M100.21 548.21 C131.47 511.35, 164.58 475.15, 188.12 447.08 M105.19 548.57 C128.65 520.48, 153.67 492.36, 187.86 453.48 M105.19 548.57 C129.91 521.33, 152.73 495.82, 187.86 453.48 M110.84 548.18 C137.93 513.81, 166.86 481.34, 187.6 459.88 M110.84 548.18 C130.32 524.5, 150.24 500.72, 187.6 459.88 M115.82 548.54 C140.04 522.5, 161.84 493.33, 187.99 465.52 M115.82 548.54 C131.46 530.82, 149.23 512.06, 187.99 465.52 M121.47 548.14 C139.6 524.67, 162.78 502.82, 187.73 471.92 M121.47 548.14 C144.16 523.73, 165.63 498.34, 187.73 471.92 M126.45 548.5 C150.44 521.98, 171.98 497.04, 188.12 477.56 M126.45 548.5 C149 522.28, 170.87 497.61, 188.12 477.56 M132.1 548.11 C145.34 533.35, 158.18 517.41, 187.86 483.96 M132.1 548.11 C146.69 532.85, 161.19 515.89, 187.86 483.96 M137.08 548.47 C153.46 530.93, 169.28 514.42, 187.6 490.36 M137.08 548.47 C152.25 530.47, 168.32 513.5, 187.6 490.36 M142.73 548.07 C156.96 528.36, 177.35 511.18, 187.99 496 M142.73 548.07 C155.41 534.77, 166.54 519.3, 187.99 496 M147.71 548.43 C159.55 532.44, 175.02 516.89, 187.73 502.4 M147.71 548.43 C163.25 532.43, 176.63 514.26, 187.73 502.4 M152.7 548.79 C164.79 535.96, 174.9 522.23, 188.13 508.04 M152.7 548.79 C160.97 539.35, 169.97 529.19, 188.13 508.04 M157.69 549.15 C162.74 541.79, 169.1 532.96, 187.21 515.19 M157.69 549.15 C164.4 539.96, 172.78 530.4, 187.21 515.19 M163.33 548.76 C171.96 539.08, 184.1 526.57, 186.95 521.59 M163.33 548.76 C173.3 538.1, 181.32 527.68, 186.95 521.59 M170.94 546.1 C173.39 542.48, 179.67 535.93, 189.31 524.97 M170.94 546.1 C179.19 537.7, 185.81 530.47, 189.31 524.97" stroke="#4c6ef5" stroke-width="0.5" fill="none"></path><path d="M32 0 M32 0 C60.4 -1.55, 87.55 -1.04, 155 0 M32 0 C77.26 -1.52, 121.83 -1.94, 155 0 M155 0 C177.39 -1.99, 185.94 9.92, 187 32 M155 0 C177.38 -0.63, 188.75 11.64, 187 32 M187 32 C187.85 180.33, 188.35 329.55, 187 515 M187 32 C187.21 196.99, 187.28 362.36, 187 515 M187 515 C188.41 536.92, 175.42 545.8, 155 547 M187 515 C187.1 535.8, 178.05 545.27, 155 547 M155 547 C112.35 545.73, 73.64 549.05, 32 547 M155 547 C115.01 546.6, 77.22 546.52, 32 547 M32 547 C11.02 547.57, -0.42 536.56, 0 515 M32 547 C9.49 545.89, -0.79 536.3, 0 515 M0 515 C-1.91 387.24, -1.67 258.57, 0 32 M0 515 C0.9 358.14, 0.18 201.93, 0 32 M0 32 C0.59 11.55, 10.59 -0.12, 32 0 M0 32 C1.04 12.59, 9.75 0.36, 32 0" stroke="#495057" stroke-width="1" fill="none"></path></g><g transform="translate(190.25108906579442 929.6299821914189) rotate(0 75.5 12.5)"><text x="75.5" y="17" font-family="Virgil, Segoe UI Emoji" font-size="20px" fill="#495057" text-anchor="middle" style="white-space: pre;" direction="ltr">first msg_msgs</text></g><g stroke-linecap="round" transform="translate(177.14914945572207 973.6504859167429) rotate(0 91.78565979003906 44.64284896850586)"><path d="M23.98 0.82 L159.95 -1.29 L174.84 3.82 L179.51 9.04 L181.93 17.01 L185.02 65.81 L178.86 80.39 L174.84 87.4 L161.65 88.82 L22.87 90.64 L9.28 84.18 L1.75 82.36 L-0.17 72.33 L1.69 17.16 L3.53 7.22 L10.27 1.65 L21.49 -0.34" stroke="none" stroke-width="0" fill="#40c057"></path><path d="M22.32 0 M22.32 0 C63.86 3.04, 102.97 2.33, 161.25 0 M22.32 0 C75.78 -1.35, 127.39 -1.48, 161.25 0 M161.25 0 C177.92 -1.14, 184.57 5.68, 183.57 22.32 M161.25 0 C175.26 0.14, 183.37 5.24, 183.57 22.32 M183.57 22.32 C182.1 34.62, 183.76 47.8, 183.57 66.96 M183.57 22.32 C184.25 35.16, 184.11 46.3, 183.57 66.96 M183.57 66.96 C182.76 80.05, 174.94 88.15, 161.25 89.29 M183.57 66.96 C184.46 82.08, 176.75 91.16, 161.25 89.29 M161.25 89.29 C129.4 92.1, 96.96 92.24, 22.32 89.29 M161.25 89.29 C106.31 90.65, 53.31 89.61, 22.32 89.29 M22.32 89.29 C5.59 89.17, -1.87 81.5, 0 66.96 M22.32 89.29 C6.57 88.68, -2 80.01, 0 66.96 M0 66.96 C-0.44 54.71, 0.86 46.5, 0 22.32 M0 66.96 C0.92 49.44, 0.25 31.44, 0 22.32 M0 22.32 C0.61 8.2, 5.75 0.29, 22.32 0 M0 22.32 C-1.77 5.57, 5.52 1.75, 22.32 0" stroke="#495057" stroke-width="1" fill="none"></path></g><g transform="translate(198.93480924576113 1012.0433348852488) rotate(0 70 12.5)"><text x="70" y="17" font-family="Virgil, Segoe UI Emoji" font-size="20px" fill="#495057" text-anchor="middle" style="white-space: pre;" direction="ltr">first msg_msg</text></g><g stroke-linecap="round" transform="translate(532.409218621632 1020.562215093582) rotate(0 94.857177734375 39.714263916015625)"><path d="M18.55 -1.29 L169.84 0.68 L177.62 1.56 L183.46 4.88 L190.85 14.05 L188.14 59.4 L188.46 69.52 L182.36 76.17 L170.4 80.78 L20.42 77.46 L9.78 79.98 L4.45 74.59 L1.65 64.29 L0.7 13.71 L4.34 6.27 L6.93 2.45 L19.55 -1.68" stroke="none" stroke-width="0" fill="#fa5252"></path><path d="M19.86 0 M19.86 0 C54.14 -0.24, 87.02 0.53, 169.86 0 M169.86 0 C184.03 1.5, 188.31 5.92, 189.71 19.86 M189.71 19.86 C191.07 26.69, 189.32 37.16, 189.71 59.57 M189.71 59.57 C189.54 70.89, 182.78 81.38, 169.86 79.43 M169.86 79.43 C123.39 79.21, 76.77 79.24, 19.86 79.43 M19.86 79.43 C5.41 80.73, 1.8 73.84, 0 59.57 M0 59.57 C-1.03 46.16, 0.94 35.22, 0 19.86 M0 19.86 C0.53 8.25, 5.36 0.24, 19.86 0" stroke="#495057" stroke-width="1.5" fill="none" stroke-dasharray="8 9"></path></g><g transform="translate(539.766396356007 1035.2764790095976) rotate(0 87.5 25)"><text x="87.5" y="17" font-family="Virgil, Segoe UI Emoji" font-size="20px" fill="#495057" text-anchor="middle" style="white-space: pre;" direction="ltr">占位成功的 second</text><text x="87.5" y="42" font-family="Virgil, Segoe UI Emoji" font-size="20px" fill="#495057" text-anchor="middle" style="white-space: pre;" direction="ltr">msg_msg</text></g><g mask="url(#mask-Kqxr33nCugF-ykbNS2DVF)" stroke-linecap="round"><g transform="translate(361.77353746928895 1008.5552927103348) rotate(0 82.0173161523303 29.229151008903045)"><path d="M-0.55 0.19 C26.5 9.74, 134.87 48.22, 162.28 57.7 M1.36 -0.76 C28.79 8.96, 137.54 49.42, 164.59 59.21" stroke="#495057" stroke-width="1" fill="none"></path></g><g transform="translate(361.77353746928895 1008.5552927103348) rotate(0 82.0173161523303 29.229151008903045)"><path d="M134.91 57.82 C143.48 60.73, 151.39 57.74, 164.41 59.2 M134.86 59.8 C145.76 58.24, 155.66 60.15, 164.33 59.28" stroke="#495057" stroke-width="1" fill="none"></path></g><g transform="translate(361.77353746928895 1008.5552927103348) rotate(0 82.0173161523303 29.229151008903045)"><path d="M141.98 38.56 C148.51 47.2, 154.3 49.97, 164.41 59.2 M141.94 40.54 C150.31 45.95, 157.64 54.85, 164.33 59.28" stroke="#495057" stroke-width="1" fill="none"></path></g></g><mask id="mask-Kqxr33nCugF-ykbNS2DVF"><rect x="0" y="0" fill="#fff" width="624.8334036886155" height="1166.305450579478"></rect><rect x="387.80347057895233" y="1024.9303716449065" fill="#000" width="111" height="25" opacity="1"></rect></mask><g transform="translate(387.8034705789521 1024.9303716449062) rotate(0 55.987383042667034 12.854072074331498)"><text x="55.5" y="17" font-family="Virgil, Segoe UI Emoji" font-size="20px" fill="#495057" text-anchor="middle" style="white-space: pre;" direction="ltr">m_list.next</text></g><g transform="translate(484.660373566643 902.24223796905) rotate(0 100.5 12.5)"><text x="0" y="18" font-family="Virgil, Segoe UI Emoji" font-size="20px" fill="#495057" text-anchor="start" style="white-space: pre;" direction="ltr">this has been freed!</text></g><g stroke-linecap="round"><g transform="translate(516.6413752718532 929.0109350719146) rotate(0 59.71314037303296 45.167700045072024)"><path d="M0.57 1.17 C20.69 16.18, 100.01 75.06, 120.02 89.6 M-0.6 0.74 C19.47 15.41, 99.14 72.89, 119.31 87.64" stroke="#495057" stroke-width="1" fill="none"></path></g><g transform="translate(516.6413752718532 929.0109350719146) rotate(0 59.71314037303296 45.167700045072024)"><path d="M92.42 80.14 C97.86 83.01, 102.75 83.37, 119.83 86.53 M90.23 78.76 C96.77 81.52, 103.91 83.41, 118.41 87.28" stroke="#495057" stroke-width="1" fill="none"></path></g><g transform="translate(516.6413752718532 929.0109350719146) rotate(0 59.71314037303296 45.167700045072024)"><path d="M104.47 63.53 C106.97 70.43, 108.97 74.76, 119.83 86.53 M102.28 62.15 C105.9 68.86, 110.1 74.79, 118.41 87.28" stroke="#495057" stroke-width="1" fill="none"></path></g></g><mask></mask><g stroke-linecap="round"><g transform="translate(656.9396878802582 554.405461235652) rotate(0 -88.06188552097115 57.62257457607734)"><path d="M0.2 0.39 C-29.09 19.58, -145.96 95.23, -175.33 114.2 M-1.15 -0.44 C-30.65 19.02, -147.6 96.36, -176.33 115.69" stroke="#495057" stroke-width="4" fill="none"></path></g><g transform="translate(656.9396878802582 554.405461235652) rotate(0 -88.06188552097115 57.62257457607734)"><path d="M-157.9 91.37 C-164.89 98.44, -170.83 108.56, -176.95 114.03 M-157.64 90.83 C-165.68 101.91, -172.2 110.63, -175.35 115.41" stroke="#495057" stroke-width="4" fill="none"></path></g><g transform="translate(656.9396878802582 554.405461235652) rotate(0 -88.06188552097115 57.62257457607734)"><path d="M-146.52 108.45 C-157.22 109.77, -167.01 114.13, -176.95 114.03 M-146.26 107.91 C-158.75 112.31, -169.71 114.35, -175.35 115.41" stroke="#495057" stroke-width="4" fill="none"></path></g></g><mask></mask><g transform="translate(383.60344976463205 1117.5351223257544) rotate(0.42374827546701155 60.5 33.5)"><text x="0" y="47" font-family="Virgil, Segoe UI Emoji" font-size="53.00505423038559px" fill="#495057" text-anchor="start" style="white-space: pre;" direction="ltr">UAF!</text></g></svg>