<svg version="1.1" xmlns="http://www.w3.org/2000/svg" viewBox="0 0 637.9999084472656 410.0713272094727" width="637.9999084472656" height="410.0713272094727">
  <!-- svg-source:excalidraw -->
  
  <defs>
    <style class="style-fonts">
      @font-face {
        font-family: "Virgil";
        src: url("https://excalidraw.com/Virgil.woff2");
      }
      @font-face {
        font-family: "Cascadia";
        src: url("https://excalidraw.com/Cascadia.woff2");
      }
    </style>
  </defs>
  <g stroke-linecap="round" transform="translate(11.999771118164062 18.78574371337885) rotate(0 107.14300537109375 189.71426391601568)"><path d="M31.17 -0.86 L191.7 0.63 L196.8 3.29 L206.22 9.32 L213.72 19.38 L215.35 30.58 L214.47 346.9 L213.71 356.52 L209.52 365.82 L206.14 370.74 L196.11 375.64 L183.27 379.37 L25.46 378.19 L12.68 373.85 L4.86 366.04 L1.04 360.39 L0.03 345.51 L0.44 22.51 L0.69 17.76 L9.99 9.27 L17.84 0.95 L33.05 1.17" stroke="none" stroke-width="0" fill="#40c057"></path><path d="M32 0 M32 0 C76.4 -2, 119.39 0.11, 182.29 0 M32 0 C83.67 0.03, 137.82 1.6, 182.29 0 M182.29 0 C202.56 -1.92, 215.78 10.79, 214.29 32 M182.29 0 C202.78 2, 215.24 12.7, 214.29 32 M214.29 32 C215.2 119.97, 214.75 207.2, 214.29 347.43 M214.29 32 C215.86 106.72, 215.13 182.38, 214.29 347.43 M214.29 347.43 C214.12 368.53, 205.17 378.23, 182.29 379.43 M214.29 347.43 C215.52 368.32, 205.04 380.63, 182.29 379.43 M182.29 379.43 C127.31 379.85, 73.77 378.34, 32 379.43 M182.29 379.43 C144.95 379.13, 108.23 379.15, 32 379.43 M32 379.43 C9.23 380.17, 1.99 367.57, 0 347.43 M32 379.43 C9.79 379.67, 2.17 370.2, 0 347.43 M0 347.43 C-1.49 230.27, -2.27 115.56, 0 32 M0 347.43 C-0.66 267.39, 0.5 187.93, 0 32 M0 32 C1.87 8.79, 9.37 0.39, 32 0 M0 32 C-1.98 9.93, 10.05 -1.91, 32 0" stroke="#495057" stroke-width="4" fill="none"></path></g><g stroke-linecap="round" transform="translate(412.7139434814453 20.64279937744135) rotate(0 107.14300537109375 189.71426391601568)"><path d="M31.39 -1.77 L190.57 -0.17 L197.57 0.04 L207.03 7.21 L212.31 17.95 L212.66 32.21 L213.34 348.63 L212.53 354.87 L210.87 366.7 L204.45 372.21 L196.34 375.83 L182.52 381.26 L25.66 379.51 L12.26 373.88 L5.37 365.48 L0.82 362.2 L-1.13 348.73 L-0.76 25.13 L0.1 16.56 L8.09 8.66 L18.78 2.82 L30.7 -0.28" stroke="none" stroke-width="0" fill="#40c057"></path><path d="M32 0 M32 0 C81.06 0.26, 125.34 -1.99, 182.29 0 M32 0 C63.52 -1.85, 93.78 -1.36, 182.29 0 M182.29 0 C203.57 1.75, 212.5 9.45, 214.29 32 M182.29 0 C203.57 1.33, 216.25 12.18, 214.29 32 M214.29 32 C214.34 133.25, 214.81 233.49, 214.29 347.43 M214.29 32 C214.3 144.68, 214.05 256.98, 214.29 347.43 M214.29 347.43 C214.55 367.07, 202.66 378.47, 182.29 379.43 M214.29 347.43 C213.62 366.84, 205.21 378.15, 182.29 379.43 M182.29 379.43 C121.52 379.88, 62.21 377.8, 32 379.43 M182.29 379.43 C145.67 380.12, 108.25 378.74, 32 379.43 M32 379.43 C8.9 378.47, -1.12 367.67, 0 347.43 M32 379.43 C11.88 379.39, 2.01 370.7, 0 347.43 M0 347.43 C-0.32 261.95, 1.82 176.88, 0 32 M0 347.43 C0.21 283.51, 0.56 218.05, 0 32 M0 32 C0.74 11, 9.88 -0.1, 32 0 M0 32 C1.7 10.9, 9.53 -0.01, 32 0" stroke="#495057" stroke-width="4" fill="none"></path></g><g stroke-linecap="round" transform="translate(11.428512573242188 19.928565979003906) rotate(0 106.85713195800781 60.857147216796875)"><path d="M31.57 0.26 L183.59 -0.76 L196.75 0.43 L201.05 4.54 L207.74 10.93 L212.28 22.72 L212.05 92.67 L212.13 100.32 L209.15 110.21 L200.45 117.6 L195.31 117.9 L182.15 123.63 L30.71 121.56 L24.26 119.32 L10.08 115.67 L3.32 108.71 L-0.61 99.47 L0.44 25.05 L5.96 11.29 L6.95 7.01 L15.62 1.49 L31.96 -0.23" stroke="none" stroke-width="0" fill="#4c6ef5"></path><path d="M30.43 0 M30.43 0 C59.81 2.23, 92.1 -0.16, 183.29 0 M30.43 0 C81.87 1.34, 133.52 0.11, 183.29 0 M183.29 0 C203.56 1.24, 215.02 11.18, 213.71 30.43 M183.29 0 C203.54 0.26, 213.86 9.1, 213.71 30.43 M213.71 30.43 C212.55 50.6, 215.18 71.84, 213.71 91.29 M213.71 30.43 C213.12 45.51, 213.21 59.14, 213.71 91.29 M213.71 91.29 C214.37 113.52, 202.16 123.63, 183.29 121.71 M213.71 91.29 C215.63 113.09, 201.57 119.89, 183.29 121.71 M183.29 121.71 C143.05 120.02, 104.12 122.13, 30.43 121.71 M183.29 121.71 C134.37 122.8, 84.36 122.55, 30.43 121.71 M30.43 121.71 C8.7 120.48, -1.27 110.47, 0 91.29 M30.43 121.71 C9.26 121.51, -0.89 110.74, 0 91.29 M0 91.29 C-0.9 75.75, 1.72 57.53, 0 30.43 M0 91.29 C-0.54 78.14, 0.9 64.38, 0 30.43 M0 30.43 C0.13 10.25, 9.44 1.51, 30.43 0 M0 30.43 C1.05 8.86, 11.74 -1.19, 30.43 0" stroke="#495057" stroke-width="4" fill="none"></path></g><g stroke-linecap="round" transform="translate(10 145.64286041259766) rotate(0 106.85713195800781 60.857147216796875)"><path d="M28.91 -0.98 L181.58 0.02 L196.42 0.64 L199.94 5.86 L209.1 12.67 L213.18 24.12 L214.57 92.31 L213.49 100.4 L210.88 109.92 L200.54 115.47 L195.37 119.14 L181.58 120.45 L31.84 122.57 L24.49 119.8 L13.06 116.97 L5.13 110.58 L1.63 97.4 L2.45 24.59 L3.94 11.45 L8.11 8.54 L15.38 0.28 L30.08 1.16" stroke="none" stroke-width="0" fill="#4c6ef5"></path><path d="M30.43 0 M30.43 0 C90.3 -3.06, 148.74 -0.6, 183.29 0 M30.43 0 C85 0.72, 137.57 1.31, 183.29 0 M183.29 0 C203.65 -0.14, 213.22 11.75, 213.71 30.43 M183.29 0 C203.59 -0.5, 215.79 9.3, 213.71 30.43 M213.71 30.43 C213.84 46.73, 215.36 67.36, 213.71 91.29 M213.71 30.43 C212.98 44.89, 213.51 58.74, 213.71 91.29 M213.71 91.29 C213.96 110.72, 203.86 120.71, 183.29 121.71 M213.71 91.29 C215.34 109.99, 202.2 119.8, 183.29 121.71 M183.29 121.71 C143.07 124.17, 104.36 121.9, 30.43 121.71 M183.29 121.71 C143.7 123, 106.47 124.11, 30.43 121.71 M30.43 121.71 C10.77 122.95, -0.07 111.63, 0 91.29 M30.43 121.71 C10.89 123.05, -1.8 109.38, 0 91.29 M0 91.29 C-1.85 69.38, 1.37 48.57, 0 30.43 M0 91.29 C-0.25 70.37, 0.15 48.25, 0 30.43 M0 30.43 C-0.13 11.11, 9.33 1.29, 30.43 0 M0 30.43 C1.23 11.07, 9.2 0.95, 30.43 0" stroke="#495057" stroke-width="4" fill="none"></path></g><g stroke-linecap="round" transform="translate(414.14288330078125 21.21424102783203) rotate(0 106.85713195800781 32.28572082519531)"><path d="M14.48 -0.92 L204.84 2.83 L210.06 7.37 L212.21 11.15 L211.78 53.93 L209.28 60.71 L197.27 66.11 L11.02 64.19 L3.51 58.2 L0.31 52.86 L1.41 10.8 L2.13 4.95 L10.8 2.14 L14.81 -0.88" stroke="none" stroke-width="0" fill="#fa5252"></path><path d="M16.14 0 M16.14 0 C88.02 0.4, 159.08 0.58, 197.57 0 M16.14 0 C75 -0.29, 133.54 0.66, 197.57 0 M197.57 0 C209.14 -0.82, 214.54 4.97, 213.71 16.14 M197.57 0 C207.74 -1.88, 211.63 4.22, 213.71 16.14 M213.71 16.14 C212.14 24.65, 212.39 36.97, 213.71 48.43 M213.71 16.14 C213.51 23.74, 213.75 32.2, 213.71 48.43 M213.71 48.43 C212.45 57.9, 207.19 66.48, 197.57 64.57 M213.71 48.43 C214.25 61.39, 206.33 63.64, 197.57 64.57 M197.57 64.57 C141.65 64.71, 83.5 61.42, 16.14 64.57 M197.57 64.57 C132.7 64.71, 66.29 64.17, 16.14 64.57 M16.14 64.57 C4.56 62.99, -1.96 59.06, 0 48.43 M16.14 64.57 C5.01 63.28, -1.67 57.38, 0 48.43 M0 48.43 C-1.65 37.61, 0.34 22.53, 0 16.14 M0 48.43 C0.8 36.97, -0.28 25.12, 0 16.14 M0 16.14 C0.93 5.28, 6.69 -0.83, 16.14 0 M0 16.14 C-0.37 4.9, 6.25 0.13, 16.14 0" stroke="#495057" stroke-width="4" fill="none"></path></g><g transform="translate(447.50001525878906 40.999961853027344) rotate(0 73.5 12.5)"><text x="73.5" y="17" font-family="Virgil, Segoe UI Emoji" font-size="20px" fill="#495057" text-anchor="middle" style="white-space: pre;" direction="ltr">m_ts = 0xFF0</text></g><g stroke-linecap="round" transform="translate(414.28564453125 88.7856674194336) rotate(0 106.85713195800781 32.28572082519531)"><path d="M16.5 -0.04 L202.67 -0.75 L212.24 5.38 L214.66 13.95 L211.46 54.74 L208.84 60.57 L196.74 64.78 L10.4 63.96 L0.5 56.73 L-1.06 53.05 L-0.34 11.6 L2.64 5.23 L10.48 1.53 L17.53 -0.16" stroke="none" stroke-width="0" fill="#4c6ef5"></path><path d="M16.14 0 M16.14 0 C53.54 0.07, 91.49 2.38, 197.57 0 M16.14 0 C80.92 1.48, 147.26 1.68, 197.57 0 M197.57 0 C209.87 -1.2, 215.1 6.09, 213.71 16.14 M197.57 0 C209.84 -1.63, 212.44 6.31, 213.71 16.14 M213.71 16.14 C213.83 22, 211.88 28.27, 213.71 48.43 M213.71 16.14 C214.32 23.89, 212.55 33.11, 213.71 48.43 M213.71 48.43 C212.88 58.34, 206.81 64.79, 197.57 64.57 M213.71 48.43 C215.63 58.94, 208.09 62.84, 197.57 64.57 M197.57 64.57 C155.32 65.53, 110.64 67.6, 16.14 64.57 M197.57 64.57 C155.39 64, 114.54 63.38, 16.14 64.57 M16.14 64.57 C7.06 64.49, -1.63 59.21, 0 48.43 M16.14 64.57 C3.73 65.21, 0.34 60.28, 0 48.43 M0 48.43 C-1.32 37.06, 1.58 25.59, 0 16.14 M0 48.43 C0.73 38, -0.78 27.62, 0 16.14 M0 16.14 C0.16 5.67, 6.13 -1.58, 16.14 0 M0 16.14 C0.91 7.51, 4.01 -0.84, 16.14 0" stroke="#495057" stroke-width="4" fill="none"></path></g><g transform="translate(517.7143096923828 171.4999771118164) rotate(0 9 12.5)"><text x="0" y="18" font-family="Virgil, Segoe UI Emoji" font-size="20px" fill="#495057" text-anchor="start" style="white-space: pre;" direction="ltr">...</text></g><g transform="translate(102.14277648925781 277.7143020629883) rotate(0 9 12.500000000000028)"><text x="0" y="18" font-family="Virgil, Segoe UI Emoji" font-size="20px" fill="#495057" text-anchor="start" style="white-space: pre;" direction="ltr">...</text></g><g mask="url(#mask-PhWZ3MtftjGahjrc-H6W1)" stroke-linecap="round"><g transform="translate(415.4286651611328 96.49994659423828) rotate(0 -94.87268816843164 30.214535638689995)"><path d="M1.06 -1.05 C-30.49 9.06, -158.08 51.16, -190.2 61.48 M0.16 1.02 C-31.41 10.68, -159.25 49.36, -190.81 59.53" stroke="#495057" stroke-width="4" fill="none"></path></g><g transform="translate(415.4286651611328 96.49994659423828) rotate(0 -94.87268816843164 30.214535638689995)"><path d="M-168.68 42.45 C-171.63 44.3, -178.05 51.17, -190.52 59.23 M-167.21 40.41 C-173.14 46.95, -179.39 50.39, -189.96 60.05" stroke="#495057" stroke-width="4" fill="none"></path></g><g transform="translate(415.4286651611328 96.49994659423828) rotate(0 -94.87268816843164 30.214535638689995)"><path d="M-162.59 62.05 C-167.05 59.54, -174.84 61.99, -190.52 59.23 M-161.12 60 C-168.88 61.11, -176.81 59.14, -189.96 60.05" stroke="#495057" stroke-width="4" fill="none"></path></g></g><mask id="mask-PhWZ3MtftjGahjrc-H6W1"><rect x="0" y="0" fill="#fff" width="706.2857818603516" height="257.6428909301758"></rect><rect x="266.00010681152344" y="114.57141876220703" fill="#000" width="108" height="25" opacity="1"></rect></mask><g transform="translate(266.00010681152344 114.57141876220703) rotate(0 54.55587018117774 12.143063470721245)"><text x="54" y="17" font-family="Virgil, Segoe UI Emoji" font-size="20px" fill="#495057" text-anchor="middle" style="white-space: pre;" direction="ltr">m_list.prev</text></g><g mask="url(#mask-xbnqXMy90ocVXf0gzSxb5)" stroke-linecap="round"><g transform="translate(214.85707092285156 21.07141876220703) rotate(0 103.15445052229336 1.5959127847757202)"><path d="M0.48 0.76 C35.1 0.89, 172.38 1.74, 207.04 2 M-0.73 0.11 C33.76 0.88, 171.06 2.54, 205.89 3.08" stroke="#495057" stroke-width="4" fill="none"></path></g><g transform="translate(214.85707092285156 21.07141876220703) rotate(0 103.15445052229336 1.5959127847757202)"><path d="M178.82 12.31 C182.86 12.2, 190.22 8.71, 205.79 2.75 M177.83 12.7 C187.45 9.3, 196.15 6.86, 206.07 2.93" stroke="#495057" stroke-width="4" fill="none"></path></g><g transform="translate(214.85707092285156 21.07141876220703) rotate(0 103.15445052229336 1.5959127847757202)"><path d="M179.11 -8.21 C183.27 -3.38, 190.57 -1.92, 205.79 2.75 M178.11 -7.82 C187.54 -4.79, 196.14 -0.81, 206.07 2.93" stroke="#495057" stroke-width="4" fill="none"></path></g></g><mask id="mask-xbnqXMy90ocVXf0gzSxb5"><rect x="0" y="0" fill="#fff" width="522.2856597900391" height="123.92858123779297"></rect><rect x="263.0713653564453" y="10" fill="#000" width="111" height="25" opacity="1"></rect></mask><g transform="translate(263.0713653564453 10) rotate(0 54.94015608869961 12.667331546982751)"><text x="55.5" y="17" font-family="Virgil, Segoe UI Emoji" font-size="20px" fill="#495057" text-anchor="middle" style="white-space: pre;" direction="ltr">m_list.next</text></g></svg>